<svg width="2000" height="1500" viewBox="0 0 2000 1500" fill="none" xmlns="http://www.w3.org/2000/svg">
<rect width="2000" height="1500" fill="white"/>
<g clip-path="url(#clip0)">
<path d="M616.751 831.709C607.975 829.828 599.341 835.412 597.461 844.205L588.518 885.938C560.921 898.464 530.275 905.423 498 905.423C464.986 905.423 433.674 898.12 405.584 885.061L396.647 843.328C394.767 834.546 386.133 828.951 377.363 830.837L340.519 838.748C333.68 831.709 327.317 824.21 321.469 816.294H500.74C502.77 816.294 504.122 815.927 504.122 814.081V750.668C504.122 748.822 502.77 748.455 500.74 748.455H448.31V708.259H505.017C510.193 708.259 532.694 709.738 539.888 738.498C542.141 747.343 547.089 776.115 550.471 785.327C553.842 795.657 567.565 816.294 582.189 816.294H671.521C672.536 816.294 673.619 816.179 674.76 815.973C668.563 824.394 661.764 832.362 654.443 839.809L616.751 831.709ZM279.896 662.507L318.276 645.453C326.474 641.813 330.177 632.205 326.537 623.991L318.632 606.117H349.72V746.242H286.999C281.559 727.119 278.641 706.935 278.641 686.074C278.641 678.111 279.071 670.241 279.896 662.507ZM448.321 648.898V607.596H522.352C526.176 607.596 549.353 612.015 549.353 629.345C549.353 643.733 531.576 648.893 516.958 648.893H448.321V648.898ZM717.365 686.074C717.365 691.554 717.164 696.977 716.763 702.36H694.257C692.004 702.36 691.098 703.839 691.098 706.046V716.382C691.098 740.711 677.38 746.002 665.358 747.349C653.91 748.639 641.218 742.556 639.653 735.551C632.9 697.568 621.647 689.456 603.876 675.44C625.929 661.435 648.877 640.775 648.877 613.122C648.877 583.261 628.406 564.453 614.453 555.229C594.876 542.325 573.201 539.74 567.353 539.74H334.591C366.155 504.513 408.932 479.56 457.316 470.48L484.752 499.262C490.955 505.757 501.227 505.998 507.717 499.79L538.415 470.428C602.741 482.403 657.201 522.445 688.587 577.38L667.571 624.845C663.942 633.06 667.646 642.667 675.838 646.307L716.299 664.279C716.998 671.462 717.365 678.719 717.365 686.074Z" fill="black"/>
<path fill-rule="evenodd" clip-rule="evenodd" d="M793.901 680.639L768.712 665.047C768.5 662.593 768.259 660.146 767.995 657.709L759.098 612.709C758.405 610.313 757.677 607.934 756.931 605.566L774.192 581.593C775.952 579.157 776.313 575.987 775.167 573.206C774.02 570.437 771.515 568.454 768.551 567.967L739.372 563.22C738.237 561.007 737.056 558.829 735.864 556.668L710.325 518.524C708.795 516.609 707.235 514.712 705.647 512.849L712.452 484.003C713.14 481.073 712.274 478.006 710.142 475.88C708.026 473.758 704.954 472.881 702.024 473.569L673.183 480.368C671.315 478.786 669.417 477.221 667.497 475.69L629.369 450.152C627.196 448.96 625.018 447.779 622.817 446.638L618.058 417.454C617.577 414.496 615.593 411.985 612.819 410.838C610.05 409.686 606.874 410.059 604.438 411.813L580.447 429.074C578.085 428.323 575.712 427.6 573.315 426.912L528.32 418.015C525.884 417.746 523.43 417.5 520.982 417.299L505.389 392.104C503.813 389.554 501.021 388 498.017 388C495.013 388 492.222 389.554 490.651 392.104L475.058 417.299C472.604 417.5 470.151 417.746 467.714 418.015L422.713 426.912C420.317 427.6 417.944 428.328 415.576 429.074L391.591 411.813C389.155 410.053 385.979 409.68 383.204 410.838C380.435 411.985 378.446 414.496 377.964 417.454L373.206 446.638C371.005 447.779 368.827 448.954 366.654 450.152L328.521 475.69C326.606 477.221 324.708 478.786 322.834 480.368L293.993 473.569C291.064 472.887 287.991 473.758 285.87 475.88C283.737 478.006 282.872 481.073 283.559 484.003L290.353 512.849C288.776 514.717 287.217 516.609 285.686 518.524L260.147 556.668C258.955 558.829 257.774 561.007 256.633 563.22L227.454 567.967C224.49 568.448 221.991 570.432 220.839 573.206C219.692 575.987 220.065 579.157 221.813 581.593L239.074 605.566C238.323 607.934 237.595 610.313 236.907 612.709L228.01 657.709C227.741 660.146 227.5 662.599 227.294 665.047L202.105 680.639C199.554 682.216 198 685.002 198 688.011C198 691.021 199.554 693.807 202.105 695.378L227.294 710.97C227.5 713.424 227.741 715.872 228.01 718.308L236.907 763.308C237.595 765.704 238.323 768.083 239.074 770.451L221.813 794.43C220.059 796.872 219.687 800.042 220.839 802.811C221.991 805.591 224.496 807.575 227.46 808.05L256.633 812.797C257.774 815.01 258.944 817.188 260.147 819.361L285.675 857.488C287.217 859.414 288.77 861.3 290.353 863.174L283.559 892.026C282.872 894.95 283.737 898.005 285.87 900.132C287.985 902.27 291.064 903.124 293.993 902.436L322.834 895.643C324.708 897.237 326.606 898.785 328.521 900.31L366.654 925.854C368.821 927.058 370.999 928.227 373.206 929.368L377.964 958.535C378.446 961.504 380.429 964.015 383.204 965.156C385.973 966.308 389.155 965.936 391.591 964.187L415.565 946.915C417.932 947.666 420.311 948.4 422.708 949.088L467.709 957.973C470.145 958.254 472.599 958.489 475.052 958.707L490.645 983.896C492.216 986.435 495.008 988 498.011 988C501.015 988 503.807 986.441 505.384 983.896L520.976 958.707C523.43 958.489 525.878 958.254 528.314 957.973L573.31 949.088C575.706 948.4 578.085 947.666 580.452 946.915L604.432 964.187C606.868 965.936 610.044 966.308 612.813 965.156C615.588 964.015 617.571 961.499 618.053 958.535L622.811 929.368C625.012 928.227 627.191 927.04 629.363 925.854L667.497 900.31C669.411 898.779 671.309 897.237 673.178 895.643L702.019 902.436C704.948 903.124 708.021 902.27 710.136 900.132C712.268 898.005 713.134 894.95 712.446 892.026L705.653 863.174C707.235 861.3 708.795 859.414 710.319 857.488L735.858 819.361C737.056 817.188 738.232 815.01 739.367 812.797L768.546 808.05C771.515 807.575 774.015 805.591 775.161 802.811C776.308 800.042 775.947 796.872 774.187 794.43L756.926 770.451C757.671 768.083 758.399 765.704 759.093 763.308L767.99 718.308C768.253 715.872 768.494 713.418 768.706 710.97L793.895 695.378C796.446 693.807 798 691.015 798 688.011C798 685.008 796.452 682.216 793.901 680.639ZM597.461 844.205C599.341 835.412 607.975 829.828 616.751 831.709L654.443 839.809C661.764 832.362 668.563 824.394 674.76 815.973C673.619 816.179 672.536 816.294 671.521 816.294H582.189C567.565 816.294 553.842 795.657 550.471 785.327C547.089 776.115 542.141 747.343 539.888 738.498C532.694 709.738 510.193 708.259 505.017 708.259H448.31V748.455H500.74C502.77 748.455 504.122 748.822 504.122 750.668V814.081C504.122 815.927 502.77 816.294 500.74 816.294H321.469C327.317 824.21 333.68 831.709 340.519 838.748L377.363 830.837C386.133 828.951 394.767 834.546 396.647 843.328L405.584 885.061C433.674 898.12 464.986 905.423 498 905.423C530.275 905.423 560.921 898.464 588.518 885.938L597.461 844.205ZM318.276 645.453L279.896 662.507C279.071 670.241 278.641 678.111 278.641 686.074C278.641 706.935 281.559 727.119 286.999 746.242H349.72V606.117H318.632L326.537 623.991C330.177 632.205 326.474 641.813 318.276 645.453ZM448.321 607.596V648.893H516.958C531.576 648.893 549.353 643.733 549.353 629.345C549.353 612.015 526.176 607.596 522.352 607.596H448.321ZM716.763 702.36C717.164 696.977 717.365 691.554 717.365 686.074C717.365 678.719 716.998 671.462 716.299 664.279L675.838 646.307C667.646 642.667 663.942 633.06 667.571 624.845L688.587 577.38C657.201 522.445 602.741 482.403 538.415 470.428L507.717 499.79C501.227 505.998 490.955 505.757 484.752 499.262L457.316 470.48C408.932 479.56 366.155 504.513 334.591 539.74H567.353C573.201 539.74 594.876 542.325 614.453 555.229C628.406 564.453 648.877 583.261 648.877 613.122C648.877 640.775 625.929 661.435 603.876 675.44C621.647 689.456 632.9 697.568 639.653 735.551C641.218 742.556 653.91 748.639 665.358 747.349C677.38 746.002 691.098 740.711 691.098 716.382V706.046C691.098 703.839 692.004 702.36 694.257 702.36H716.763Z" fill="black"/>
<path d="M497.998 439.429C360.942 439.429 249.428 550.942 249.428 688.002C249.428 825.074 360.942 936.581 497.998 936.581C635.058 936.581 746.571 825.074 746.571 688.002C746.571 550.942 635.058 439.429 497.998 439.429Z" fill="white"/>
<path d="M488.908 692.473C486.675 697.312 484.21 702.75 481.658 708.537C472.638 728.974 462.649 753.843 459 769.774C457.689 775.449 456.877 782.481 456.893 790.278C456.893 793.362 457.058 796.603 457.32 799.904C470.073 804.59 483.847 807.167 498.231 807.192C511.326 807.167 523.906 805.004 535.68 801.089C532.913 798.558 530.272 795.861 527.868 792.822C511.905 772.466 502.999 742.634 488.908 692.473" fill="#933C48"/>
<path d="M429.973 591.339C399.486 612.825 379.536 648.262 379.46 688.422C379.536 727.981 398.886 762.96 428.606 784.535C435.896 754.169 454.17 726.364 481.573 670.629C479.945 666.159 478.091 661.265 476.015 656.125C468.424 637.082 457.467 614.967 447.689 604.952C442.704 599.72 436.655 595.199 429.973 591.339" fill="#933C48"/>
<path d="M601.689 824.65C585.959 822.679 572.977 820.3 561.621 816.294C542.52 825.778 521.008 831.136 498.231 831.136C419.419 831.136 355.53 767.257 355.52 688.421C355.52 645.646 374.365 607.3 404.178 581.147C396.204 579.221 387.889 578.096 379.395 578.112C337.522 578.506 293.321 601.68 274.919 664.263C273.198 673.373 273.608 680.261 273.608 688.425C273.608 812.488 374.184 913.064 498.237 913.064C574.211 913.064 641.325 875.314 681.968 817.579C659.985 823.058 638.845 825.677 620.742 825.734C613.957 825.734 607.587 825.371 601.689 824.65" fill="#622831"/>
<path d="M559.479 781.123C560.865 781.81 564.009 782.933 568.384 784.174C597.819 762.566 616.947 727.76 617.023 688.421H617.011C616.901 622.839 563.829 569.775 498.231 569.645C485.193 569.67 472.667 571.822 460.939 575.708C485.057 603.198 496.654 642.484 507.873 685.458C507.879 685.477 507.888 685.493 507.892 685.508C507.914 685.543 511.481 697.442 517.606 713.228C523.688 728.993 532.353 748.51 541.803 762.733C548.007 772.264 554.831 779.113 559.479 781.123" fill="#BA5B6A"/>
<path d="M498.237 463.783C422.997 463.783 356.442 500.822 315.677 557.615C336.893 544.328 358.555 539.535 377.46 539.706C403.572 539.781 424.101 547.878 433.95 553.416C436.329 554.787 438.588 556.263 440.799 557.78C458.374 550.039 477.794 545.71 498.231 545.71C577.054 545.72 640.952 609.599 640.964 688.421H640.952C640.952 728.162 624.698 764.094 598.495 789.969C604.927 790.689 611.786 791.138 618.79 791.103C643.669 791.114 670.559 785.624 690.719 768.669C703.864 757.596 714.877 741.383 720.984 717.073C722.178 707.684 722.866 698.139 722.866 688.425C722.866 564.369 622.299 463.783 498.237 463.783" fill="#880015"/>
<path d="M122.953 1183C102.02 1183 86.2198 1177.33 75.5531 1166C64.8865 1154.67 59.5531 1137.4 59.5531 1114.2C59.5531 1068.33 80.6865 1045.4 122.953 1045.4C130.02 1045.4 137.02 1046.27 143.953 1048C150.886 1049.73 157.686 1052.13 164.353 1055.2V1075C157.82 1071.13 151.286 1068.33 144.753 1066.6C138.353 1064.73 132.02 1063.8 125.753 1063.8C111.086 1063.8 100.153 1067.73 92.9531 1075.6C85.8865 1083.47 82.3531 1096.4 82.3531 1114.4C82.3531 1132.27 85.8865 1145.07 92.9531 1152.8C100.153 1160.53 111.286 1164.4 126.353 1164.4C132.353 1164.4 138.553 1163.6 144.953 1162C151.353 1160.27 157.82 1157.47 164.353 1153.6V1173.4C158.22 1176.33 151.553 1178.67 144.353 1180.4C137.153 1182.13 130.02 1183 122.953 1183ZM210.553 1181H189.753V1042.6H210.553V1181ZM283.144 1184C266.877 1184 254.744 1179.4 246.744 1170.2C238.877 1161 234.944 1147.87 234.944 1130.8C234.944 1112.8 239.01 1099.53 247.144 1091C255.41 1082.47 267.344 1078.2 282.944 1078.2C299.344 1078.2 311.544 1082.8 319.544 1092C327.544 1101.07 331.544 1114 331.544 1130.8C331.544 1147.73 327.344 1160.87 318.944 1170.2C310.544 1179.4 298.61 1184 283.144 1184ZM282.944 1166.2C293.077 1166.2 300.21 1162.93 304.344 1156.4C308.477 1149.87 310.544 1141.33 310.544 1130.8C310.544 1119.33 308.41 1110.67 304.144 1104.8C299.877 1098.8 292.81 1095.8 282.944 1095.8C272.81 1095.8 265.744 1098.93 261.744 1105.2C257.744 1111.33 255.744 1119.87 255.744 1130.8C255.744 1141.87 257.81 1150.53 261.944 1156.8C266.077 1163.07 273.077 1166.2 282.944 1166.2ZM360.569 1064V1045H382.769V1064H360.569ZM342.769 1219.6V1201.6C349.969 1201.73 354.835 1200.33 357.369 1197.4C359.902 1194.47 361.169 1190.07 361.169 1184.2V1080.6H382.169L382.369 1184.6C382.369 1197.13 378.835 1206.07 371.769 1211.4C364.702 1216.87 355.035 1219.6 342.769 1219.6ZM456.809 1184C443.076 1184 432.209 1180.6 424.209 1173.8C416.343 1167 412.409 1156.93 412.409 1143.6V1080.6H433.409V1140.6C433.409 1149.13 435.276 1155.47 439.009 1159.6C442.743 1163.6 448.676 1165.6 456.809 1165.6C464.809 1165.6 470.676 1163.6 474.409 1159.6C478.276 1155.47 480.209 1149.13 480.209 1140.6V1080.6H500.409V1143.6C500.409 1156.93 496.543 1167 488.809 1173.8C481.076 1180.6 470.409 1184 456.809 1184ZM529.988 1181V1089.8C531.721 1088.73 534.921 1087.33 539.588 1085.6C544.254 1083.73 549.721 1082.07 555.988 1080.6C562.388 1079.13 568.921 1078.4 575.588 1078.4C578.921 1078.4 581.654 1078.67 583.788 1079.2C585.921 1079.73 587.721 1080.33 589.188 1081V1097.8C583.188 1096.87 576.654 1096.6 569.588 1097C562.521 1097.4 556.321 1098.07 550.988 1099V1181H529.988ZM647.602 1184C632.802 1184 621.002 1179.53 612.202 1170.6C603.535 1161.53 599.202 1148.47 599.202 1131.4C599.202 1113.93 603.268 1100.73 611.402 1091.8C619.668 1082.73 631.135 1078.2 645.802 1078.2C656.602 1078.2 665.335 1080.6 672.002 1085.4C678.668 1090.2 683.468 1096.93 686.402 1105.6C689.468 1114.13 690.935 1124.13 690.802 1135.6H620.202C620.868 1145.47 623.802 1153 629.002 1158.2C634.202 1163.27 641.535 1165.8 651.002 1165.8C657.668 1165.8 663.735 1165 669.202 1163.4C674.802 1161.67 679.535 1159.73 683.402 1157.6V1177.2C678.602 1179.33 673.268 1181 667.402 1182.2C661.535 1183.4 654.935 1184 647.602 1184ZM645.202 1095.4C638.402 1095.4 632.935 1097.2 628.802 1100.8C624.668 1104.27 622.002 1110.67 620.802 1120H669.402C668.602 1111.47 666.202 1105.27 662.202 1101.4C658.335 1097.4 652.668 1095.4 645.202 1095.4ZM715.948 1181V1047.6H775.148C789.015 1047.6 799.682 1051 807.148 1057.8C814.615 1064.47 818.348 1074.53 818.348 1088C818.348 1097.33 815.748 1105.67 810.548 1113C805.482 1120.2 798.348 1124.8 789.148 1126.8L824.748 1181H797.348L766.148 1130.6H737.948V1181H715.948ZM737.948 1112.6H768.948C786.415 1112.6 795.148 1104.8 795.148 1089.2C795.148 1082 793.415 1076.4 789.948 1072.4C786.482 1068.27 780.682 1066.2 772.548 1066.2H737.948V1112.6ZM889.756 1183.2C883.09 1183.2 877.223 1182.8 872.156 1182C867.223 1181.33 862.623 1180.2 858.356 1178.6C854.223 1177 849.956 1175.07 845.556 1172.8V1150.8C850.756 1154.93 857.023 1158.33 864.356 1161C871.823 1163.67 879.823 1165 888.356 1165C896.623 1165 902.756 1163.33 906.756 1160C910.89 1156.53 912.956 1151.8 912.956 1145.8C912.956 1141.13 911.423 1137.4 908.356 1134.6C905.423 1131.67 901.49 1129.2 896.556 1127.2C891.623 1125.2 886.356 1123.2 880.756 1121.2C875.023 1119.2 869.49 1116.87 864.156 1114.2C858.823 1111.4 854.423 1107.6 850.956 1102.8C847.623 1098 845.956 1091.4 845.956 1083C845.956 1077 847.49 1071.13 850.556 1065.4C853.623 1059.53 858.423 1054.73 864.956 1051C871.623 1047.13 880.423 1045.2 891.356 1045.2C896.69 1045.2 901.29 1045.53 905.156 1046.2C909.156 1046.87 912.89 1047.93 916.356 1049.4C919.956 1050.73 923.823 1052.4 927.956 1054.4V1076C922.89 1072.8 917.69 1069.93 912.356 1067.4C907.023 1064.87 900.69 1063.53 893.356 1063.4C885.09 1063.27 878.89 1064.87 874.756 1068.2C870.623 1071.53 868.556 1075.73 868.556 1080.8C868.556 1085.47 869.756 1089.2 872.156 1092C874.556 1094.67 877.823 1096.93 881.956 1098.8C886.223 1100.53 891.156 1102.27 896.756 1104C903.29 1106.13 909.49 1108.67 915.356 1111.6C921.356 1114.53 926.223 1118.47 929.956 1123.4C933.69 1128.33 935.556 1134.93 935.556 1143.2C935.556 1150.13 933.956 1156.67 930.756 1162.8C927.69 1168.8 922.756 1173.73 915.956 1177.6C909.29 1181.33 900.556 1183.2 889.756 1183.2Z" fill="black"/>
</g>
<path d="M1656.34 693.611C1644.63 691.104 1633.12 698.549 1630.61 710.274L1618.69 765.918C1581.9 782.618 1541.03 791.897 1498 791.897C1453.98 791.897 1412.23 782.16 1374.78 764.748L1362.86 709.105C1360.36 697.395 1348.84 689.935 1337.15 692.45L1288.03 702.997C1278.91 693.611 1270.42 683.614 1262.63 673.058H1501.65C1504.36 673.058 1506.16 672.569 1506.16 670.108V585.557C1506.16 583.096 1504.36 582.607 1501.65 582.607H1431.75V529.012H1507.36C1514.26 529.012 1544.26 530.984 1553.85 569.33C1556.86 581.124 1563.45 619.486 1567.96 631.769C1572.46 645.542 1590.75 673.058 1610.25 673.058H1729.36C1730.71 673.058 1732.16 672.906 1733.68 672.63C1725.42 683.858 1716.35 694.483 1706.59 704.412L1656.34 693.611ZM1207.2 468.01L1258.37 445.271C1269.3 440.417 1274.24 427.607 1269.38 416.654L1258.84 392.822H1300.29V579.657H1216.67C1209.41 554.158 1205.52 527.246 1205.52 499.432C1205.52 488.815 1206.09 478.321 1207.2 468.01ZM1431.76 449.865V394.794H1530.47C1535.57 394.794 1566.47 400.687 1566.47 423.793C1566.47 442.978 1542.77 449.857 1523.28 449.857H1431.76V449.865ZM1790.49 499.432C1790.49 506.739 1790.22 513.969 1789.68 521.147H1759.68C1756.67 521.147 1755.46 523.119 1755.46 526.061V539.842C1755.46 572.281 1737.17 579.336 1721.14 581.132C1705.88 582.851 1688.96 574.742 1686.87 565.402C1677.87 514.757 1662.86 503.941 1639.17 485.253C1668.57 466.581 1699.17 439.034 1699.17 402.162C1699.17 362.348 1671.87 337.27 1653.27 324.972C1627.17 307.767 1598.27 304.32 1590.47 304.32H1280.12C1322.21 257.351 1379.24 224.08 1443.75 211.973L1480.34 250.35C1488.61 259.01 1502.3 259.331 1510.96 251.053L1551.89 211.904C1637.65 227.871 1710.27 281.26 1752.12 354.506L1724.09 417.793C1719.26 428.746 1724.19 441.556 1735.12 446.41L1789.06 470.372C1790 479.949 1790.49 489.625 1790.49 499.432Z" fill="black"/>
<path fill-rule="evenodd" clip-rule="evenodd" d="M1892.53 492.186L1858.95 471.396C1858.67 468.125 1858.35 464.861 1857.99 461.612L1846.13 401.612C1845.21 398.417 1844.24 395.245 1843.24 392.088L1866.26 360.124C1868.6 356.876 1869.08 352.649 1867.56 348.942C1866.03 345.25 1862.69 342.605 1858.74 341.956L1819.83 335.627C1818.32 332.677 1816.74 329.772 1815.15 326.891L1781.1 276.032C1779.06 273.479 1776.98 270.949 1774.86 268.465L1783.94 230.003C1784.85 226.098 1783.7 222.008 1780.86 219.173C1778.04 216.345 1773.94 215.175 1770.03 216.092L1731.58 225.157C1729.09 223.048 1726.56 220.961 1724 218.921L1673.16 184.869C1670.26 183.279 1667.36 181.705 1664.42 180.184L1658.08 141.272C1657.44 137.328 1654.79 133.98 1651.09 132.451C1647.4 130.915 1643.17 131.412 1639.92 133.751L1607.93 156.765C1604.78 155.763 1601.62 154.8 1598.42 153.883L1538.43 142.021C1535.18 141.661 1531.91 141.333 1528.64 141.065L1507.85 107.473C1505.75 104.071 1502.03 102 1498.02 102C1494.02 102 1490.3 104.071 1488.2 107.473L1467.41 141.065C1464.14 141.333 1460.87 141.661 1457.62 142.021L1397.62 153.883C1394.42 154.8 1391.26 155.771 1388.1 156.765L1356.12 133.751C1352.87 131.404 1348.64 130.907 1344.94 132.451C1341.25 133.98 1338.59 137.328 1337.95 141.272L1331.61 180.184C1328.67 181.705 1325.77 183.272 1322.87 184.869L1272.03 218.921C1269.47 220.961 1266.94 223.048 1264.45 225.157L1225.99 216.092C1222.08 215.183 1217.99 216.345 1215.16 219.173C1212.32 222.008 1211.16 226.098 1212.08 230.003L1221.14 268.465C1219.03 270.956 1216.96 273.479 1214.92 276.032L1180.86 326.891C1179.27 329.772 1177.7 332.677 1176.18 335.627L1137.27 341.956C1133.32 342.598 1129.99 345.242 1128.45 348.942C1126.92 352.649 1127.42 356.876 1129.75 360.124L1152.77 392.088C1151.76 395.245 1150.79 398.417 1149.88 401.612L1138.01 461.612C1137.65 464.861 1137.33 468.132 1137.06 471.396L1103.47 492.186C1100.07 494.288 1098 498.003 1098 502.015C1098 506.028 1100.07 509.743 1103.47 511.837L1137.06 532.627C1137.33 535.898 1137.65 539.162 1138.01 542.41L1149.88 602.411C1150.79 605.606 1151.76 608.778 1152.77 611.934L1129.75 643.907C1127.41 647.163 1126.92 651.39 1128.45 655.081C1129.99 658.788 1133.33 661.433 1137.28 662.067L1176.18 668.396C1177.7 671.346 1179.26 674.251 1180.86 677.148L1214.9 727.984C1216.96 730.552 1219.03 733.066 1221.14 735.566L1212.08 774.035C1211.16 777.933 1212.32 782.007 1215.16 784.843C1217.98 787.694 1222.08 788.832 1225.99 787.915L1264.45 778.858C1266.94 780.983 1269.47 783.046 1272.03 785.08L1322.87 819.138C1325.76 820.743 1328.67 822.303 1331.61 823.824L1337.95 862.713C1338.59 866.672 1341.24 870.02 1344.94 871.541C1348.63 873.078 1352.87 872.581 1356.12 870.25L1388.09 847.22C1391.24 848.221 1394.42 849.2 1397.61 850.117L1457.61 861.964C1460.86 862.339 1464.13 862.652 1467.4 862.942L1488.19 896.527C1490.29 899.913 1494.01 902 1498.02 902C1502.02 902 1505.74 899.921 1507.84 896.527L1528.64 862.942C1531.91 862.652 1535.17 862.339 1538.42 861.964L1598.41 850.117C1601.61 849.2 1604.78 848.221 1607.94 847.22L1639.91 870.25C1643.16 872.581 1647.39 873.078 1651.08 871.541C1654.78 870.02 1657.43 866.665 1658.07 862.713L1664.41 823.824C1667.35 822.303 1670.25 820.721 1673.15 819.138L1724 785.08C1726.55 783.039 1729.08 780.983 1731.57 778.858L1770.02 787.915C1773.93 788.832 1778.03 787.694 1780.85 784.843C1783.69 782.007 1784.85 777.933 1783.93 774.035L1774.87 735.566C1776.98 733.066 1779.06 730.552 1781.09 727.984L1815.14 677.148C1816.74 674.251 1818.31 671.346 1819.82 668.396L1858.73 662.067C1862.69 661.433 1866.02 658.788 1867.55 655.081C1869.08 651.39 1868.6 647.163 1866.25 643.907L1843.23 611.934C1844.23 608.778 1845.2 605.606 1846.12 602.411L1857.99 542.41C1858.34 539.162 1858.66 535.891 1858.94 532.627L1892.53 511.837C1895.93 509.743 1898 506.02 1898 502.015C1898 498.01 1895.94 494.288 1892.53 492.186ZM1630.61 710.274C1633.12 698.549 1644.63 691.104 1656.34 693.611L1706.59 704.412C1716.35 694.483 1725.42 683.858 1733.68 672.63C1732.16 672.906 1730.71 673.058 1729.36 673.058H1610.25C1590.75 673.058 1572.46 645.542 1567.96 631.769C1563.45 619.486 1556.86 581.124 1553.85 569.33C1544.26 530.984 1514.26 529.012 1507.36 529.012H1431.75V582.607H1501.65C1504.36 582.607 1506.16 583.096 1506.16 585.557V670.108C1506.16 672.569 1504.36 673.058 1501.65 673.058H1262.63C1270.42 683.614 1278.91 693.611 1288.03 702.997L1337.15 692.45C1348.84 689.935 1360.36 697.395 1362.86 709.105L1374.78 764.748C1412.23 782.16 1453.98 791.897 1498 791.897C1541.03 791.897 1581.9 782.618 1618.69 765.918L1630.61 710.274ZM1258.37 445.271L1207.2 468.01C1206.09 478.321 1205.52 488.815 1205.52 499.432C1205.52 527.246 1209.41 554.158 1216.67 579.657H1300.29V392.822H1258.84L1269.38 416.654C1274.24 427.607 1269.3 440.417 1258.37 445.271ZM1431.76 394.794V449.857H1523.28C1542.77 449.857 1566.47 442.978 1566.47 423.793C1566.47 400.687 1535.57 394.794 1530.47 394.794H1431.76ZM1789.68 521.147C1790.22 513.969 1790.49 506.739 1790.49 499.432C1790.49 489.625 1790 479.949 1789.06 470.372L1735.12 446.41C1724.19 441.556 1719.26 428.746 1724.09 417.793L1752.12 354.506C1710.27 281.26 1637.65 227.871 1551.89 211.904L1510.96 251.053C1502.3 259.331 1488.61 259.01 1480.34 250.35L1443.75 211.973C1379.24 224.08 1322.21 257.351 1280.12 304.32H1590.47C1598.27 304.32 1627.17 307.767 1653.27 324.972C1671.87 337.27 1699.17 362.348 1699.17 402.162C1699.17 439.034 1668.57 466.581 1639.17 485.253C1662.86 503.941 1677.87 514.757 1686.87 565.402C1688.96 574.742 1705.88 582.851 1721.14 581.132C1737.17 579.336 1755.46 572.281 1755.46 539.842V526.061C1755.46 523.119 1756.67 521.147 1759.68 521.147H1789.68Z" fill="black"/>
<path d="M1498 170.571C1315.26 170.571 1166.57 319.256 1166.57 502.002C1166.57 684.765 1315.26 833.441 1498 833.441C1680.74 833.441 1829.43 684.765 1829.43 502.002C1829.43 319.256 1680.74 170.571 1498 170.571Z" fill="white"/>
<path d="M1485.88 507.963C1482.9 514.416 1479.61 521.666 1476.21 529.382C1464.18 556.632 1450.86 589.79 1446 611.032C1444.25 618.598 1443.17 627.974 1443.19 638.37C1443.19 642.482 1443.41 646.803 1443.76 651.205C1460.76 657.453 1479.13 660.889 1498.31 660.923C1515.77 660.889 1532.54 658.005 1548.24 652.785C1544.55 649.411 1541.03 645.814 1537.82 641.762C1516.54 614.621 1504.66 574.845 1485.88 507.963" fill="#933C48"/>
<path d="M1407.3 373.118C1366.65 401.766 1340.05 449.015 1339.95 502.562C1340.05 555.308 1365.85 601.946 1405.47 630.713C1415.19 590.225 1439.56 553.151 1476.1 478.839C1473.93 472.878 1471.45 466.353 1468.69 459.499C1458.57 434.109 1443.96 404.622 1430.92 391.269C1424.27 384.294 1416.21 378.266 1407.3 373.118" fill="#933C48"/>
<path d="M1636.25 684.2C1615.28 681.572 1597.97 678.4 1582.83 673.058C1557.36 685.705 1528.68 692.848 1498.31 692.848C1393.22 692.848 1308.04 607.676 1308.03 502.562C1308.03 445.528 1333.15 394.4 1372.9 359.53C1362.27 356.961 1351.18 355.462 1339.86 355.483C1284.03 356.008 1225.09 386.906 1200.56 470.351C1198.26 482.497 1198.81 491.682 1198.81 502.567C1198.81 667.983 1332.91 802.085 1498.32 802.085C1599.61 802.085 1689.1 751.752 1743.29 674.773C1713.98 682.077 1685.79 685.57 1661.66 685.645C1652.61 685.645 1644.12 685.161 1636.25 684.2" fill="#622831"/>
<path d="M1579.97 626.164C1581.82 627.081 1586.01 628.577 1591.85 630.232C1631.09 601.421 1656.6 555.013 1656.7 502.562H1656.68C1656.53 415.119 1585.77 344.367 1498.31 344.193C1480.92 344.227 1464.22 347.096 1448.59 352.277C1480.74 388.931 1496.21 441.312 1511.16 498.611C1511.17 498.636 1511.18 498.657 1511.19 498.678C1511.22 498.724 1515.97 514.589 1524.14 535.637C1532.25 556.657 1543.8 582.679 1556.4 601.643C1564.68 614.352 1573.78 623.484 1579.97 626.164" fill="#BA5B6A"/>
<path d="M1498.32 203.043C1398 203.043 1309.26 252.429 1254.9 328.153C1283.19 310.437 1312.07 304.046 1337.28 304.274C1372.1 304.375 1399.47 315.17 1412.6 322.555C1415.77 324.383 1418.78 326.35 1421.73 328.373C1445.17 318.052 1471.06 312.28 1498.31 312.28C1603.4 312.293 1688.6 397.465 1688.62 502.562H1688.6C1688.6 555.549 1666.93 603.458 1631.99 637.958C1640.57 638.919 1649.71 639.517 1659.05 639.47C1692.22 639.486 1728.08 632.166 1754.96 609.559C1772.49 594.795 1787.17 573.177 1795.31 540.764C1796.9 528.245 1797.82 515.518 1797.82 502.567C1797.82 337.158 1663.73 203.043 1498.32 203.043" fill="#880015"/>
<g clip-path="url(#clip1)">
<path d="M209.48 219.879C205.823 219.095 202.226 221.422 201.442 225.086L197.716 242.474C186.217 247.693 173.448 250.593 160 250.593C146.244 250.593 133.198 247.55 121.493 242.109L117.77 224.72C116.986 221.061 113.389 218.73 109.734 219.516L94.3829 222.812C91.5333 219.879 88.8819 216.754 86.4456 213.456H161.142C161.987 213.456 162.551 213.303 162.551 212.534V186.112C162.551 185.343 161.987 185.19 161.142 185.19H139.296V168.441H162.924C165.081 168.441 174.456 169.057 177.453 181.041C178.392 184.726 180.454 196.714 181.863 200.553C183.267 204.857 188.986 213.456 195.079 213.456H232.3C232.723 213.456 233.175 213.408 233.65 213.322C231.068 216.831 228.235 220.151 225.185 223.254L209.48 219.879ZM69.1235 149.378L85.1151 142.272C88.5308 140.755 90.0739 136.752 88.5571 133.329L85.2632 125.882H98.2166V184.268H72.083C69.8162 176.299 68.6004 167.889 68.6004 159.197C68.6004 155.88 68.7795 152.6 69.1235 149.378ZM139.3 143.708V126.498H170.147C171.74 126.498 181.397 128.34 181.397 135.56C181.397 141.556 173.99 143.705 167.899 143.705H139.3V143.708ZM251.402 159.197C251.402 161.481 251.318 163.74 251.151 165.983H241.774C240.835 165.983 240.457 166.6 240.457 167.519V171.826C240.457 181.963 234.742 184.167 229.733 184.729C224.963 185.266 219.674 182.732 219.022 179.813C216.208 163.986 211.52 160.607 204.115 154.767C213.304 148.931 222.865 140.323 222.865 128.801C222.865 116.359 214.336 108.522 208.522 104.679C200.365 99.3022 191.334 98.2249 188.897 98.2249H91.9131C105.065 83.5473 122.888 73.1499 143.048 69.3665L154.48 81.3594C157.064 84.0656 161.345 84.1659 164.049 81.5791L176.84 69.345C203.642 74.3346 226.334 91.0187 239.411 113.908L230.655 133.685C229.143 137.108 230.686 141.111 234.099 142.628L250.958 150.116C251.249 153.109 251.402 156.133 251.402 159.197Z" fill="black"/>
<path fill-rule="evenodd" clip-rule="evenodd" d="M283.292 156.933L272.797 150.436C272.708 149.414 272.608 148.394 272.498 147.379L268.791 128.629C268.502 127.63 268.199 126.639 267.888 125.653L275.08 115.664C275.813 114.649 275.964 113.328 275.486 112.169C275.008 111.016 273.965 110.189 272.73 109.986L260.572 108.008C260.099 107.086 259.607 106.179 259.11 105.278L248.469 89.3849C247.831 88.5871 247.181 87.7965 246.52 87.0202L249.355 75.001C249.642 73.7805 249.281 72.5026 248.392 71.6165C247.511 70.7327 246.231 70.3673 245.01 70.6539L232.993 73.4867C232.214 72.8275 231.424 72.1754 230.624 71.5377L214.737 60.8967C213.832 60.3998 212.924 59.9078 212.007 59.4325L210.024 47.2724C209.824 46.0399 208.997 44.9937 207.841 44.516C206.688 44.0359 205.364 44.1911 204.349 44.922L194.353 52.114C193.369 51.8011 192.38 51.5001 191.381 51.2135L172.633 47.5064C171.618 47.3942 170.596 47.2915 169.576 47.2079L163.079 36.7102C162.422 35.6473 161.259 35 160.007 35C158.756 35 157.592 35.6473 156.938 36.7102L150.441 47.2079C149.419 47.2915 148.396 47.3942 147.381 47.5064L128.631 51.2135C127.632 51.5001 126.643 51.8034 125.657 52.114L115.663 44.922C114.648 44.1888 113.324 44.0335 112.168 44.516C111.015 44.9937 110.186 46.0399 109.985 47.2724L108.003 59.4325C107.085 59.9078 106.178 60.3975 105.272 60.8967L89.3836 71.5377C88.5858 72.1754 87.7951 72.8275 87.0141 73.4867L74.997 70.6539C73.7765 70.3696 72.4962 70.7327 71.6124 71.6165C70.7238 72.5026 70.3632 73.7805 70.6498 75.001L73.4803 87.0202C72.8234 87.7989 72.1737 88.5871 71.536 89.3849L60.8948 105.278C60.3979 106.179 59.9059 107.086 59.4306 108.008L47.2726 109.986C46.0377 110.187 44.9963 111.013 44.5162 112.169C44.0384 113.328 44.1937 114.649 44.9222 115.664L52.1143 125.653C51.8014 126.639 51.498 127.63 51.2114 128.629L47.5043 147.379C47.392 148.394 47.2917 149.416 47.2057 150.436L36.7102 156.933C35.6473 157.59 35 158.751 35 160.005C35 161.259 35.6473 162.42 36.7102 163.074L47.2057 169.571C47.2917 170.593 47.392 171.613 47.5043 172.628L51.2114 191.378C51.498 192.377 51.8014 193.368 52.1143 194.355L44.9222 204.346C44.1913 205.363 44.0361 206.684 44.5162 207.838C44.9963 208.996 46.0401 209.823 47.275 210.021L59.4306 211.999C59.9059 212.921 60.3932 213.828 60.8948 214.734L71.5312 230.62C72.1737 231.422 72.821 232.208 73.4803 232.989L70.6498 245.011C70.3632 246.229 70.7238 247.502 71.6124 248.388C72.4938 249.279 73.7765 249.635 74.997 249.348L87.0141 246.518C87.7951 247.182 88.5858 247.827 89.3836 248.462L105.272 259.106C106.175 259.607 107.083 260.095 108.003 260.57L109.985 272.723C110.186 273.96 111.012 275.006 112.168 275.482C113.322 275.962 114.648 275.806 115.663 275.078L125.652 267.881C126.638 268.194 127.63 268.5 128.628 268.787L147.379 272.489C148.394 272.606 149.416 272.704 150.438 272.794L156.935 283.29C157.59 284.348 158.753 285 160.005 285C161.256 285 162.42 284.35 163.077 283.29L169.573 272.794C170.596 272.704 171.616 272.606 172.631 272.489L191.379 268.787C192.377 268.5 193.369 268.194 194.355 267.881L204.347 275.078C205.362 275.806 206.685 275.962 207.839 275.482C208.995 275.006 209.821 273.958 210.022 272.723L212.005 260.57C212.922 260.095 213.829 259.6 214.735 259.106L230.624 248.462C231.421 247.825 232.212 247.182 232.991 246.518L245.008 249.348C246.228 249.635 247.509 249.279 248.39 248.388C249.279 247.502 249.639 246.229 249.353 245.011L246.522 232.989C247.181 232.208 247.831 231.422 248.466 230.62L259.108 214.734C259.607 213.828 260.096 212.921 260.569 211.999L272.727 210.021C273.965 209.823 275.006 208.996 275.484 207.838C275.962 206.684 275.811 205.363 275.078 204.346L267.886 194.355C268.196 193.368 268.5 192.377 268.789 191.378L272.496 172.628C272.606 171.613 272.706 170.591 272.794 169.571L283.29 163.074C284.353 162.42 285 161.256 285 160.005C285 158.753 284.355 157.59 283.292 156.933ZM201.442 225.086C202.226 221.422 205.823 219.095 209.48 219.879L225.185 223.254C228.235 220.151 231.068 216.831 233.65 213.322C233.175 213.408 232.723 213.456 232.3 213.456H195.079C188.986 213.456 183.267 204.857 181.863 200.553C180.454 196.714 178.392 184.726 177.453 181.041C174.456 169.057 165.081 168.441 162.924 168.441H139.296V185.19H161.142C161.987 185.19 162.551 185.343 162.551 186.112V212.534C162.551 213.303 161.987 213.456 161.142 213.456H86.4456C88.8819 216.754 91.5333 219.879 94.3829 222.812L109.734 219.516C113.389 218.73 116.986 221.061 117.77 224.72L121.493 242.109C133.198 247.55 146.244 250.593 160 250.593C173.448 250.593 186.217 247.693 197.716 242.474L201.442 225.086ZM85.1151 142.272L69.1235 149.378C68.7795 152.6 68.6004 155.88 68.6004 159.197C68.6004 167.889 69.8162 176.299 72.083 184.268H98.2166V125.882H85.2632L88.5571 133.329C90.0739 136.752 88.5308 140.755 85.1151 142.272ZM139.3 126.498V143.705H167.899C173.99 143.705 181.397 141.556 181.397 135.56C181.397 128.34 171.74 126.498 170.147 126.498H139.3ZM251.151 165.983C251.318 163.74 251.402 161.481 251.402 159.197C251.402 156.133 251.249 153.109 250.958 150.116L234.099 142.628C230.686 141.111 229.143 137.108 230.655 133.685L239.411 113.908C226.334 91.0187 203.642 74.3346 176.84 69.345L164.049 81.5791C161.345 84.1659 157.064 84.0656 154.48 81.3594L143.048 69.3665C122.888 73.1499 105.065 83.5473 91.9131 98.2249H188.897C191.334 98.2249 200.365 99.3022 208.522 104.679C214.336 108.522 222.865 116.359 222.865 128.801C222.865 140.323 213.304 148.931 204.115 154.767C211.52 160.607 216.208 163.986 219.022 179.813C219.674 182.732 224.963 185.266 229.733 184.729C234.742 184.167 240.457 181.963 240.457 171.826V167.519C240.457 166.6 240.835 165.983 241.774 165.983H251.151Z" fill="black"/>
<path d="M159.999 56.4287C102.892 56.4287 56.4285 102.893 56.4285 160.001C56.4285 217.114 102.892 263.576 159.999 263.576C217.107 263.576 263.571 217.114 263.571 160.001C263.571 102.893 217.107 56.4287 159.999 56.4287Z" fill="white"/>
<path d="M156.212 161.863C155.281 163.88 154.254 166.145 153.191 168.557C149.433 177.072 145.27 187.434 143.75 194.072C143.204 196.437 142.865 199.367 142.872 202.615C142.872 203.9 142.941 205.251 143.05 206.626C148.364 208.579 154.103 209.653 160.096 209.663C165.552 209.653 170.794 208.751 175.7 207.12C174.547 206.066 173.447 204.942 172.445 203.675C165.794 195.194 162.083 182.764 156.212 161.863Z" fill="#933C48"/>
<path d="M131.655 119.725C118.953 128.677 110.64 143.442 110.609 160.176C110.64 176.659 118.703 191.233 131.086 200.223C134.123 187.57 141.738 175.985 153.155 152.762C152.477 150.9 151.705 148.861 150.84 146.719C147.677 138.784 143.111 129.57 139.037 125.397C136.96 123.217 134.44 121.333 131.655 119.725Z" fill="#933C48"/>
<path d="M203.204 216.938C196.65 216.116 191.241 215.125 186.509 213.456C178.55 217.408 169.587 219.64 160.096 219.64C127.258 219.64 100.637 193.024 100.633 160.176C100.633 142.352 108.485 126.375 120.907 115.478C117.585 114.675 114.12 114.207 110.581 114.213C93.1342 114.378 74.7171 124.033 67.0495 150.11C66.3326 153.906 66.5034 156.776 66.5034 160.177C66.5034 211.87 108.41 253.777 160.099 253.777C191.754 253.777 219.719 238.048 236.653 213.992C227.494 216.274 218.685 217.366 211.143 217.389C208.315 217.389 205.661 217.238 203.204 216.938Z" fill="#622831"/>
<path d="M185.616 198.801C186.194 199.088 187.504 199.556 189.327 200.073C201.591 191.069 209.561 176.567 209.593 160.176H209.588C209.542 132.85 187.429 110.74 160.096 110.686C154.664 110.696 149.445 111.593 144.558 113.212C154.607 124.666 159.439 141.035 164.114 158.941C164.116 158.949 164.12 158.956 164.122 158.962C164.131 158.977 165.617 163.934 168.169 170.512C170.703 177.081 174.314 185.213 178.251 191.139C180.836 195.11 183.68 197.964 185.616 198.801Z" fill="#BA5B6A"/>
<path d="M160.099 66.5762C128.749 66.5762 101.018 82.0091 84.032 105.673C92.872 100.137 101.898 98.1396 109.775 98.2108C120.655 98.2423 129.209 101.616 133.313 103.923C134.304 104.495 135.245 105.11 136.166 105.742C143.489 102.516 151.581 100.713 160.096 100.713C192.939 100.717 219.563 127.333 219.568 160.176H219.563C219.563 176.734 212.791 191.706 201.873 202.487C204.553 202.787 207.411 202.974 210.329 202.96C220.695 202.964 231.9 200.677 240.299 193.612C245.777 188.998 250.365 182.243 252.91 172.114C253.408 168.202 253.694 164.225 253.694 160.177C253.694 108.487 211.791 66.5762 160.099 66.5762Z" fill="#880015"/>
<path d="M364.925 218.45C334.282 218.45 318.96 201.823 318.96 168.57C318.96 135.317 334.282 118.69 364.925 118.69C374.882 118.69 384.887 121.058 394.94 125.795V140.15C385.66 134.737 376.332 132.03 366.955 132.03C356.128 132.03 348.153 134.93 343.03 140.73C338.003 146.53 335.49 155.858 335.49 168.715C335.49 181.572 338.052 190.852 343.175 196.555C348.298 202.162 356.37 204.965 367.39 204.965C376.863 204.965 386.047 202.355 394.94 197.135V211.49C390.493 213.713 385.612 215.453 380.295 216.71C375.075 217.87 369.952 218.45 364.925 218.45ZM413.355 217V116.66H428.435V217H413.355ZM481.063 219.175C469.463 219.175 460.715 215.888 454.818 209.315C449.018 202.742 446.118 193.172 446.118 180.605C446.118 155.182 457.718 142.47 480.918 142.47C492.615 142.47 501.412 145.757 507.308 152.33C513.205 158.807 516.153 168.232 516.153 180.605C516.153 192.978 513.108 202.5 507.018 209.17C500.928 215.84 492.277 219.175 481.063 219.175ZM480.918 206.27C494.258 206.27 500.928 197.715 500.928 180.605C500.928 172.098 499.333 165.767 496.143 161.61C492.953 157.357 487.878 155.23 480.918 155.23C473.862 155.23 468.787 157.405 465.693 161.755C462.697 166.008 461.198 172.292 461.198 180.605C461.198 188.918 462.745 195.298 465.838 199.745C469.028 204.095 474.055 206.27 480.918 206.27ZM537.196 118.4H553.291V132.175H537.196V118.4ZM524.291 231.935C529.318 232.032 532.798 231.065 534.731 229.035C536.665 227.005 537.631 223.767 537.631 219.32V144.21H552.856L553.001 219.61C553.001 236.527 543.431 244.985 524.291 244.985V231.935ZM606.971 219.175C596.821 219.175 588.894 216.71 583.191 211.78C577.584 206.753 574.781 199.455 574.781 189.885V144.21H590.006V187.71C590.006 193.897 591.359 198.488 594.066 201.485C596.869 204.385 601.171 205.835 606.971 205.835C612.771 205.835 617.024 204.385 619.731 201.485C622.534 198.488 623.936 193.897 623.936 187.71V144.21H638.581V189.885C638.581 199.455 635.826 206.753 630.316 211.78C624.806 216.71 617.024 219.175 606.971 219.175ZM660.025 150.88C662.732 149.237 667.323 147.448 673.8 145.515C680.277 143.582 686.705 142.615 693.085 142.615C696.952 142.615 700.238 143.243 702.945 144.5V156.68C700.238 156.293 697 156.1 693.23 156.1C686.85 156.1 680.857 156.583 675.25 157.55V217H660.025V150.88ZM743.849 142.47C755.159 142.47 763.424 146.143 768.644 153.49C773.96 160.74 776.57 170.938 776.474 184.085H725.434C725.917 191.238 727.995 196.7 731.669 200.47C735.439 204.143 740.755 205.98 747.619 205.98C752.065 205.98 756.319 205.448 760.379 204.385C764.439 203.225 768.015 201.775 771.109 200.035V214.245C763.569 217.532 754.917 219.175 745.154 219.175C734.23 219.175 725.627 215.888 719.344 209.315C713.157 202.645 710.064 193.22 710.064 181.04C710.064 168.57 713.012 159.048 718.909 152.475C724.805 145.805 733.119 142.47 743.849 142.47ZM743.414 154.94C738.29 154.94 734.279 156.293 731.379 159C728.479 161.707 726.594 166.298 725.724 172.775H760.959C760.282 166.588 758.542 162.093 755.739 159.29C752.935 156.39 748.827 154.94 743.414 154.94ZM853.72 217L831.1 180.46H810.655V217H794.705V120.285H837.625C847.775 120.285 855.508 122.75 860.825 127.68C866.238 132.513 868.945 139.763 868.945 149.43C868.945 156.39 867.012 162.48 863.145 167.7C859.375 172.92 854.252 176.255 847.775 177.705L873.585 217H853.72ZM810.655 167.41H833.13C839.51 167.41 844.247 166.008 847.34 163.205C850.53 160.402 852.125 156.148 852.125 150.445C852.125 144.935 850.82 140.778 848.21 137.975C845.697 135.172 841.54 133.77 835.74 133.77H810.655V167.41ZM920.716 218.74C913.852 218.74 908.101 218.16 903.461 217C898.821 215.743 893.891 213.762 888.671 211.055V195.105C892.441 198.198 897.032 200.712 902.446 202.645C907.956 204.482 913.707 205.4 919.701 205.4C925.597 205.4 930.044 204.192 933.041 201.775C936.037 199.358 937.536 195.927 937.536 191.48C937.536 188.483 936.666 186.018 934.926 184.085C933.186 182.152 931.011 180.557 928.401 179.3C925.791 178.043 922.117 176.545 917.381 174.805L914.191 173.645C908.874 171.808 904.476 169.923 900.996 167.99C897.612 166.057 894.761 163.302 892.441 159.725C890.121 156.148 888.961 151.557 888.961 145.95C888.961 141.31 890.121 136.912 892.441 132.755C894.761 128.598 898.386 125.215 903.316 122.605C908.246 119.898 914.432 118.545 921.876 118.545C927.289 118.545 931.784 119.077 935.361 120.14C939.034 121.107 943.384 122.798 948.411 125.215V140.875C943.481 137.782 939.227 135.51 935.651 134.06C932.074 132.513 927.821 131.74 922.891 131.74C917.187 131.74 912.837 132.9 909.841 135.22C906.844 137.54 905.346 140.585 905.346 144.355C905.346 147.545 906.167 150.155 907.811 152.185C909.454 154.118 911.581 155.713 914.191 156.97C916.897 158.13 920.764 159.532 925.791 161.175C931.687 163.108 936.569 165.138 940.436 167.265C944.399 169.295 947.637 172.147 950.151 175.82C952.664 179.397 953.921 183.988 953.921 189.595C953.921 194.912 952.712 199.793 950.296 204.24C947.976 208.59 944.302 212.118 939.276 214.825C934.346 217.435 928.159 218.74 920.716 218.74Z" fill="black"/>
</g>
<defs>
<clipPath id="clip0">
<rect width="1000" height="1000" fill="white" transform="translate(0 322)"/>
</clipPath>
<clipPath id="clip1">
<rect width="1000" height="320" fill="white"/>
</clipPath>
</defs>
</svg>
