<svg width="2000" height="1500" viewBox="0 0 2000 1500" fill="none" xmlns="http://www.w3.org/2000/svg">
<rect width="2000" height="1500" fill="white"/>
<g clip-path="url(#clip0)">
<path d="M616.751 829.709C607.975 827.828 599.341 833.412 597.461 842.205L588.518 883.938C560.921 896.464 530.275 903.423 498 903.423C464.986 903.423 433.674 896.12 405.584 883.061L396.647 841.328C394.767 832.546 386.133 826.951 377.363 828.837L340.519 836.748C333.68 829.709 327.317 822.21 321.469 814.294H500.74C502.77 814.294 504.122 813.927 504.122 812.081V748.668C504.122 746.822 502.77 746.455 500.74 746.455H448.31V706.259H505.017C510.193 706.259 532.694 707.738 539.888 736.498C542.141 745.343 547.089 774.115 550.471 783.327C553.842 793.657 567.565 814.294 582.189 814.294H671.521C672.536 814.294 673.619 814.179 674.76 813.973C668.563 822.394 661.764 830.362 654.443 837.809L616.751 829.709ZM279.896 660.507L318.276 643.453C326.474 639.813 330.177 630.205 326.537 621.991L318.632 604.117H349.72V744.242H286.999C281.559 725.119 278.641 704.935 278.641 684.074C278.641 676.111 279.071 668.241 279.896 660.507ZM448.321 646.898V605.596H522.352C526.176 605.596 549.353 610.015 549.353 627.345C549.353 641.733 531.576 646.893 516.958 646.893H448.321V646.898ZM717.365 684.074C717.365 689.554 717.164 694.977 716.763 700.36H694.257C692.004 700.36 691.098 701.839 691.098 704.046V714.382C691.098 738.711 677.38 744.002 665.358 745.349C653.91 746.639 641.218 740.556 639.653 733.551C632.9 695.568 621.647 687.456 603.876 673.44C625.929 659.435 648.877 638.775 648.877 611.122C648.877 581.261 628.406 562.453 614.453 553.229C594.876 540.325 573.201 537.74 567.353 537.74H334.591C366.155 502.513 408.932 477.56 457.316 468.48L484.752 497.262C490.955 503.757 501.227 503.998 507.717 497.79L538.415 468.428C602.741 480.403 657.201 520.445 688.587 575.38L667.571 622.845C663.942 631.06 667.646 640.667 675.838 644.307L716.299 662.279C716.998 669.462 717.365 676.719 717.365 684.074Z" fill="black"/>
<path fill-rule="evenodd" clip-rule="evenodd" d="M793.901 678.639L768.712 663.047C768.5 660.593 768.259 658.146 767.995 655.709L759.098 610.709C758.405 608.313 757.677 605.934 756.931 603.566L774.192 579.593C775.952 577.157 776.313 573.987 775.167 571.206C774.02 568.437 771.515 566.454 768.551 565.967L739.372 561.22C738.237 559.007 737.056 556.829 735.864 554.668L710.325 516.524C708.795 514.609 707.235 512.712 705.647 510.849L712.452 482.003C713.14 479.073 712.274 476.006 710.142 473.88C708.026 471.758 704.954 470.881 702.024 471.569L673.183 478.368C671.315 476.786 669.417 475.221 667.497 473.69L629.369 448.152C627.196 446.96 625.018 445.779 622.817 444.638L618.058 415.454C617.577 412.496 615.593 409.985 612.819 408.838C610.05 407.686 606.874 408.059 604.438 409.813L580.447 427.074C578.085 426.323 575.712 425.6 573.315 424.912L528.32 416.015C525.884 415.746 523.43 415.5 520.982 415.299L505.389 390.104C503.813 387.554 501.021 386 498.017 386C495.013 386 492.222 387.554 490.651 390.104L475.058 415.299C472.604 415.5 470.151 415.746 467.714 416.015L422.713 424.912C420.317 425.6 417.944 426.328 415.576 427.074L391.591 409.813C389.155 408.053 385.979 407.68 383.204 408.838C380.435 409.985 378.446 412.496 377.964 415.454L373.206 444.638C371.005 445.779 368.827 446.954 366.654 448.152L328.521 473.69C326.606 475.221 324.708 476.786 322.834 478.368L293.993 471.569C291.064 470.887 287.991 471.758 285.87 473.88C283.737 476.006 282.872 479.073 283.559 482.003L290.353 510.849C288.776 512.717 287.217 514.609 285.686 516.524L260.147 554.668C258.955 556.829 257.774 559.007 256.633 561.22L227.454 565.967C224.49 566.448 221.991 568.432 220.839 571.206C219.692 573.987 220.065 577.157 221.813 579.593L239.074 603.566C238.323 605.934 237.595 608.313 236.907 610.709L228.01 655.709C227.741 658.146 227.5 660.599 227.294 663.047L202.105 678.639C199.554 680.216 198 683.002 198 686.011C198 689.021 199.554 691.807 202.105 693.378L227.294 708.97C227.5 711.424 227.741 713.872 228.01 716.308L236.907 761.308C237.595 763.704 238.323 766.083 239.074 768.451L221.813 792.43C220.059 794.872 219.687 798.042 220.839 800.811C221.991 803.591 224.496 805.575 227.46 806.05L256.633 810.797C257.774 813.01 258.944 815.188 260.147 817.361L285.675 855.488C287.217 857.414 288.77 859.3 290.353 861.174L283.559 890.026C282.872 892.95 283.737 896.005 285.87 898.132C287.985 900.27 291.064 901.124 293.993 900.436L322.834 893.643C324.708 895.237 326.606 896.785 328.521 898.31L366.654 923.854C368.821 925.058 370.999 926.227 373.206 927.368L377.964 956.535C378.446 959.504 380.429 962.015 383.204 963.156C385.973 964.308 389.155 963.936 391.591 962.187L415.565 944.915C417.932 945.666 420.311 946.4 422.708 947.088L467.709 955.973C470.145 956.254 472.599 956.489 475.052 956.707L490.645 981.896C492.216 984.435 495.008 986 498.011 986C501.015 986 503.807 984.441 505.384 981.896L520.976 956.707C523.43 956.489 525.878 956.254 528.314 955.973L573.31 947.088C575.706 946.4 578.085 945.666 580.452 944.915L604.432 962.187C606.868 963.936 610.044 964.308 612.813 963.156C615.588 962.015 617.571 959.499 618.053 956.535L622.811 927.368C625.012 926.227 627.191 925.04 629.363 923.854L667.497 898.31C669.411 896.779 671.309 895.237 673.178 893.643L702.019 900.436C704.948 901.124 708.021 900.27 710.136 898.132C712.268 896.005 713.134 892.95 712.446 890.026L705.653 861.174C707.235 859.3 708.795 857.414 710.319 855.488L735.858 817.361C737.056 815.188 738.232 813.01 739.367 810.797L768.546 806.05C771.515 805.575 774.015 803.591 775.161 800.811C776.308 798.042 775.947 794.872 774.187 792.43L756.926 768.451C757.671 766.083 758.399 763.704 759.093 761.308L767.99 716.308C768.253 713.872 768.494 711.418 768.706 708.97L793.895 693.378C796.446 691.807 798 689.015 798 686.011C798 683.008 796.452 680.216 793.901 678.639ZM597.461 842.205C599.341 833.412 607.975 827.828 616.751 829.709L654.443 837.809C661.764 830.362 668.563 822.394 674.76 813.973C673.619 814.179 672.536 814.294 671.521 814.294H582.189C567.565 814.294 553.842 793.657 550.471 783.327C547.089 774.115 542.141 745.343 539.888 736.498C532.694 707.738 510.193 706.259 505.017 706.259H448.31V746.455H500.74C502.77 746.455 504.122 746.822 504.122 748.668V812.081C504.122 813.927 502.77 814.294 500.74 814.294H321.469C327.317 822.21 333.68 829.709 340.519 836.748L377.363 828.837C386.133 826.951 394.767 832.546 396.647 841.328L405.584 883.061C433.674 896.12 464.986 903.423 498 903.423C530.275 903.423 560.921 896.464 588.518 883.938L597.461 842.205ZM318.276 643.453L279.896 660.507C279.071 668.241 278.641 676.111 278.641 684.074C278.641 704.935 281.559 725.119 286.999 744.242H349.72V604.117H318.632L326.537 621.991C330.177 630.205 326.474 639.813 318.276 643.453ZM448.321 605.596V646.893H516.958C531.576 646.893 549.353 641.733 549.353 627.345C549.353 610.015 526.176 605.596 522.352 605.596H448.321ZM716.763 700.36C717.164 694.977 717.365 689.554 717.365 684.074C717.365 676.719 716.998 669.462 716.299 662.279L675.838 644.307C667.646 640.667 663.942 631.06 667.571 622.845L688.587 575.38C657.201 520.445 602.741 480.403 538.415 468.428L507.717 497.79C501.227 503.998 490.955 503.757 484.752 497.262L457.316 468.48C408.932 477.56 366.155 502.513 334.591 537.74H567.353C573.201 537.74 594.876 540.325 614.453 553.229C628.406 562.453 648.877 581.261 648.877 611.122C648.877 638.775 625.929 659.435 603.876 673.44C621.647 687.456 632.9 695.568 639.653 733.551C641.218 740.556 653.91 746.639 665.358 745.349C677.38 744.002 691.098 738.711 691.098 714.382V704.046C691.098 701.839 692.004 700.36 694.257 700.36H716.763Z" fill="black"/>
<path d="M497.998 437.429C360.942 437.429 249.429 548.942 249.429 686.002C249.429 823.074 360.942 934.581 497.998 934.581C635.058 934.581 746.571 823.074 746.571 686.002C746.571 548.942 635.058 437.429 497.998 437.429Z" fill="white"/>
<path d="M488.908 690.473C486.675 695.312 484.21 700.75 481.658 706.537C472.638 726.974 462.649 751.843 459 767.774C457.689 773.449 456.877 780.481 456.893 788.278C456.893 791.362 457.058 794.603 457.32 797.904C470.073 802.59 483.847 805.167 498.231 805.192C511.326 805.167 523.906 803.004 535.68 799.089C532.913 796.558 530.272 793.861 527.868 790.822C511.905 770.466 502.999 740.634 488.908 690.473" fill="#933C48"/>
<path d="M429.973 589.339C399.486 610.825 379.536 646.262 379.461 686.422C379.536 725.981 398.886 760.96 428.606 782.535C435.896 752.169 454.17 724.364 481.573 668.629C479.946 664.159 478.091 659.265 476.015 654.125C468.424 635.082 457.467 612.967 447.69 602.952C442.705 597.72 436.655 593.199 429.973 589.339" fill="#933C48"/>
<path d="M601.689 822.65C585.959 820.679 572.977 818.3 561.621 814.294C542.52 823.778 521.008 829.136 498.231 829.136C419.418 829.136 355.53 765.257 355.52 686.421C355.52 643.646 374.365 605.3 404.178 579.147C396.204 577.221 387.889 576.096 379.395 576.112C337.522 576.506 293.321 599.68 274.919 662.263C273.198 671.373 273.608 678.261 273.608 686.425C273.608 810.488 374.184 911.064 498.237 911.064C574.21 911.064 641.325 873.314 681.968 815.579C659.985 821.058 638.845 823.677 620.742 823.734C613.957 823.734 607.587 823.371 601.689 822.65" fill="#622831"/>
<path d="M559.479 779.123C560.865 779.81 564.009 780.933 568.385 782.174C597.819 760.566 616.947 725.76 617.023 686.421H617.011C616.901 620.839 563.829 567.775 498.231 567.645C485.193 567.67 472.667 569.822 460.94 573.708C485.057 601.198 496.654 640.484 507.873 683.458C507.879 683.477 507.888 683.493 507.892 683.508C507.914 683.543 511.481 695.442 517.606 711.228C523.688 726.993 532.353 746.51 541.803 760.733C548.008 770.264 554.832 777.113 559.479 779.123" fill="#BA5B6A"/>
<path d="M498.237 461.783C422.997 461.783 356.442 498.822 315.677 555.615C336.893 542.328 358.555 537.535 377.46 537.706C403.572 537.781 424.101 545.878 433.95 551.416C436.329 552.787 438.588 554.263 440.799 555.78C458.374 548.039 477.794 543.71 498.231 543.71C577.054 543.72 640.952 607.599 640.964 686.421H640.952C640.952 726.162 624.698 762.094 598.495 787.969C604.927 788.689 611.786 789.138 618.79 789.103C643.669 789.114 670.559 783.624 690.719 766.669C703.864 755.596 714.877 739.383 720.984 715.073C722.178 705.684 722.866 696.139 722.866 686.425C722.866 562.369 622.299 461.783 498.237 461.783" fill="#880015"/>
<path d="M136.425 1180.6C115.892 1180.6 100.425 1174.87 90.025 1163.4C79.7583 1151.93 74.625 1134.87 74.625 1112.2C74.625 1089.53 79.7583 1072.47 90.025 1061C100.425 1049.53 115.892 1043.8 136.425 1043.8C143.492 1043.8 150.425 1044.67 157.225 1046.4C164.025 1048.13 170.625 1050.53 177.025 1053.6V1067.4C170.892 1064.07 164.558 1061.6 158.025 1060C151.492 1058.27 144.825 1057.4 138.025 1057.4C126.825 1057.4 117.625 1059.33 110.425 1063.2C103.358 1067.07 98.0917 1073.07 94.625 1081.2C91.2917 1089.2 89.625 1099.53 89.625 1112.2C89.625 1124.87 91.2917 1135.27 94.625 1143.4C98.0917 1151.4 103.358 1157.33 110.425 1161.2C117.625 1165.07 126.825 1167 138.025 1167C144.825 1167 151.492 1166.2 158.025 1164.6C164.558 1163 170.892 1160.53 177.025 1157.2V1171C172.758 1173 168.358 1174.73 163.825 1176.2C159.425 1177.67 154.892 1178.73 150.225 1179.4C145.692 1180.2 141.092 1180.6 136.425 1180.6ZM218.439 1179H204.039V1041.2H218.439V1179ZM291.523 1182C275.923 1182 264.323 1177.4 256.723 1168.2C249.257 1158.87 245.523 1145.93 245.523 1129.4C245.523 1112.07 249.457 1099.07 257.323 1090.4C265.323 1081.73 276.59 1077.4 291.123 1077.4C301.923 1077.4 310.723 1079.6 317.523 1084C324.323 1088.27 329.323 1094.33 332.523 1102.2C335.723 1109.93 337.323 1119 337.323 1129.4C337.323 1145.8 333.323 1158.67 325.323 1168C317.457 1177.33 306.19 1182 291.523 1182ZM291.323 1168.8C299.457 1168.8 305.79 1167.07 310.323 1163.6C314.857 1160 318.057 1155.27 319.923 1149.4C321.923 1143.4 322.923 1136.73 322.923 1129.4C322.923 1121.53 321.923 1114.73 319.923 1109C317.923 1103.13 314.59 1098.6 309.923 1095.4C305.39 1092.2 299.19 1090.6 291.323 1090.6C283.323 1090.6 277.057 1092.33 272.523 1095.8C267.99 1099.27 264.723 1103.93 262.723 1109.8C260.857 1115.53 259.923 1122.07 259.923 1129.4C259.923 1141.13 262.257 1150.67 266.923 1158C271.59 1165.2 279.723 1168.8 291.323 1168.8ZM350.391 1217.6V1204.2C356.257 1204.07 360.591 1203.2 363.391 1201.6C366.324 1200.13 368.257 1197.87 369.191 1194.8C370.257 1191.87 370.791 1188.27 370.791 1184V1079.2H385.191V1184.8C385.191 1192.13 383.924 1198.2 381.391 1203C378.857 1207.93 374.991 1211.6 369.791 1214C364.724 1216.4 358.257 1217.6 350.391 1217.6ZM369.991 1061.4V1045.6H385.991V1061.4H369.991ZM459.706 1182C450.906 1182 443.373 1180.47 437.106 1177.4C430.84 1174.33 426.04 1169.87 422.706 1164C419.506 1158.13 417.906 1150.93 417.906 1142.4V1079.2H432.306V1139.2C432.306 1149.33 434.506 1156.8 438.906 1161.6C443.44 1166.27 450.373 1168.6 459.706 1168.6C469.04 1168.6 475.906 1166.27 480.306 1161.6C484.84 1156.8 487.106 1149.33 487.106 1139.2V1079.2H501.506V1142.4C501.506 1155.07 497.84 1164.87 490.506 1171.8C483.306 1178.6 473.04 1182 459.706 1182ZM533.531 1179V1087.2C535.131 1086.53 538.198 1085.4 542.731 1083.8C547.398 1082.2 552.931 1080.73 559.331 1079.4C565.865 1078.07 572.598 1077.4 579.531 1077.4C580.598 1077.4 581.665 1077.53 582.731 1077.8C583.798 1078.07 584.865 1078.33 585.931 1078.6V1091.4C582.465 1091 579.065 1090.8 575.731 1090.8C572.531 1090.8 569.398 1091 566.331 1091.4C563.265 1091.67 560.198 1092.07 557.131 1092.6C554.065 1093.13 550.998 1093.67 547.931 1094.2V1179H533.531ZM643.091 1182C633.624 1182 625.424 1180.07 618.491 1176.2C611.557 1172.2 606.224 1166.27 602.491 1158.4C598.757 1150.53 596.891 1140.73 596.891 1129C596.891 1111.8 600.757 1098.93 608.491 1090.4C616.357 1081.73 627.091 1077.4 640.691 1077.4C651.357 1077.4 659.891 1079.8 666.291 1084.6C672.824 1089.4 677.491 1095.87 680.291 1104C683.091 1112.13 684.424 1121.33 684.291 1131.6H604.091L605.091 1118.4H674.891L669.291 1120.4C668.891 1110.4 666.357 1102.93 661.691 1098C657.157 1093.07 650.157 1090.6 640.691 1090.6C634.157 1090.6 628.691 1091.8 624.291 1094.2C620.024 1096.6 616.824 1100.8 614.691 1106.8C612.557 1112.67 611.491 1120.93 611.491 1131.6C611.491 1143.73 614.291 1153 619.891 1159.4C625.624 1165.67 633.624 1168.8 643.891 1168.8C648.824 1168.8 653.357 1168.47 657.491 1167.8C661.624 1167 665.424 1165.93 668.891 1164.6C672.357 1163.27 675.424 1161.8 678.091 1160.2V1175C673.291 1177.27 667.957 1179 662.091 1180.2C656.357 1181.4 650.024 1182 643.091 1182ZM712.266 1179V1045.6H767.066C780.132 1045.6 789.932 1048.87 796.466 1055.4C803.132 1061.93 806.466 1071.6 806.466 1084.4C806.466 1092.13 804.866 1099 801.666 1105C798.466 1111 793.999 1115.73 788.266 1119.2C782.532 1122.67 775.799 1124.4 768.066 1124.4L774.066 1120.4L812.466 1179H795.466L755.866 1117.8L763.066 1125.2H726.666V1179H712.266ZM726.666 1111.6H760.466C771.532 1111.6 779.532 1109.4 784.466 1105C789.532 1100.47 792.066 1093.93 792.066 1085.4C792.066 1077.4 790.199 1071.07 786.466 1066.4C782.732 1061.6 775.732 1059.2 765.466 1059.2H726.666V1111.6ZM876.238 1181C869.571 1181 863.904 1180.53 859.238 1179.6C854.571 1178.67 850.371 1177.33 846.638 1175.6C842.904 1173.87 838.838 1171.87 834.438 1169.6V1154C838.704 1157.6 844.438 1160.8 851.638 1163.6C858.838 1166.4 867.238 1167.8 876.838 1167.8C886.971 1167.8 894.304 1165.67 898.838 1161.4C903.504 1157 905.838 1151.47 905.838 1144.8C905.838 1139.2 904.304 1134.73 901.238 1131.4C898.171 1127.93 894.238 1125.13 889.438 1123C884.638 1120.73 879.571 1118.6 874.237 1116.6C869.704 1115 865.171 1113.33 860.638 1111.6C856.238 1109.73 852.238 1107.47 848.638 1104.8C845.038 1102 842.171 1098.47 840.038 1094.2C837.904 1089.8 836.838 1084.33 836.838 1077.8C836.838 1074.2 837.504 1070.4 838.838 1066.4C840.304 1062.4 842.571 1058.67 845.638 1055.2C848.838 1051.73 853.038 1048.93 858.238 1046.8C863.571 1044.67 870.038 1043.6 877.638 1043.6C882.838 1043.6 887.238 1044 890.838 1044.8C894.571 1045.47 898.104 1046.53 901.438 1048C904.771 1049.33 908.504 1051 912.638 1053V1067.8C909.171 1065.8 905.838 1064 902.638 1062.4C899.571 1060.67 896.104 1059.33 892.238 1058.4C888.504 1057.33 883.904 1056.8 878.438 1056.8C871.904 1056.8 866.638 1057.73 862.638 1059.6C858.771 1061.47 855.904 1063.93 854.038 1067C852.304 1070.07 851.438 1073.33 851.438 1076.8C851.438 1082.27 852.638 1086.6 855.038 1089.8C857.571 1093 861.038 1095.67 865.438 1097.8C869.971 1099.8 875.171 1101.8 881.038 1103.8C885.704 1105.4 890.371 1107.2 895.038 1109.2C899.704 1111.07 903.904 1113.47 907.638 1116.4C911.504 1119.2 914.571 1122.8 916.838 1127.2C919.238 1131.47 920.438 1136.8 920.438 1143.2C920.438 1149.2 919.104 1155.13 916.438 1161C913.771 1166.73 909.238 1171.53 902.838 1175.4C896.438 1179.13 887.571 1181 876.238 1181Z" fill="black"/>
</g>
<path d="M209.48 219.879C205.823 219.095 202.226 221.422 201.442 225.086L197.716 242.474C186.217 247.693 173.448 250.593 160 250.593C146.244 250.593 133.198 247.55 121.493 242.109L117.77 224.72C116.986 221.061 113.389 218.73 109.734 219.516L94.3829 222.812C91.5333 219.879 88.8819 216.754 86.4456 213.456H161.142C161.987 213.456 162.551 213.303 162.551 212.534V186.112C162.551 185.343 161.987 185.19 161.142 185.19H139.296V168.441H162.924C165.081 168.441 174.456 169.057 177.453 181.041C178.392 184.726 180.454 196.714 181.863 200.553C183.267 204.857 188.986 213.456 195.079 213.456H232.3C232.723 213.456 233.175 213.408 233.65 213.322C231.068 216.831 228.235 220.151 225.185 223.254L209.48 219.879ZM69.1235 149.378L85.1151 142.272C88.5308 140.755 90.0739 136.752 88.5571 133.329L85.2632 125.882H98.2166V184.268H72.083C69.8162 176.299 68.6004 167.889 68.6004 159.197C68.6004 155.88 68.7795 152.6 69.1235 149.378ZM139.3 143.708V126.498H170.147C171.74 126.498 181.397 128.34 181.397 135.56C181.397 141.556 173.99 143.705 167.899 143.705H139.3V143.708ZM251.402 159.197C251.402 161.481 251.318 163.74 251.151 165.983H241.774C240.835 165.983 240.457 166.6 240.457 167.519V171.826C240.457 181.963 234.742 184.167 229.733 184.729C224.963 185.266 219.674 182.732 219.022 179.813C216.208 163.986 211.52 160.607 204.115 154.767C213.304 148.931 222.865 140.323 222.865 128.801C222.865 116.359 214.336 108.522 208.522 104.679C200.365 99.3022 191.334 98.2249 188.897 98.2249H91.9131C105.065 83.5473 122.888 73.1499 143.048 69.3665L154.48 81.3594C157.064 84.0656 161.345 84.1659 164.049 81.5791L176.84 69.345C203.642 74.3346 226.334 91.0187 239.411 113.908L230.655 133.685C229.143 137.108 230.686 141.111 234.099 142.628L250.958 150.116C251.249 153.109 251.402 156.133 251.402 159.197Z" fill="black"/>
<path fill-rule="evenodd" clip-rule="evenodd" d="M283.292 156.933L272.797 150.436C272.708 149.414 272.608 148.394 272.498 147.379L268.791 128.629C268.502 127.63 268.199 126.639 267.888 125.653L275.08 115.664C275.813 114.649 275.964 113.328 275.486 112.169C275.008 111.016 273.965 110.189 272.73 109.986L260.572 108.008C260.099 107.086 259.607 106.179 259.11 105.278L248.469 89.3849C247.831 88.5871 247.181 87.7965 246.52 87.0202L249.355 75.001C249.642 73.7805 249.281 72.5026 248.392 71.6165C247.511 70.7327 246.231 70.3673 245.01 70.6539L232.993 73.4867C232.214 72.8275 231.424 72.1754 230.624 71.5377L214.737 60.8967C213.832 60.3998 212.924 59.9078 212.007 59.4325L210.024 47.2724C209.824 46.0399 208.997 44.9937 207.841 44.516C206.687 44.0359 205.364 44.1911 204.349 44.922L194.353 52.114C193.369 51.8011 192.38 51.5001 191.381 51.2135L172.633 47.5064C171.618 47.3942 170.596 47.2915 169.576 47.2079L163.079 36.7102C162.422 35.6473 161.259 35 160.007 35C158.756 35 157.592 35.6473 156.938 36.7102L150.441 47.2079C149.419 47.2915 148.396 47.3942 147.381 47.5064L128.631 51.2135C127.632 51.5001 126.643 51.8034 125.657 52.114L115.663 44.922C114.648 44.1888 113.324 44.0335 112.168 44.516C111.015 44.9937 110.186 46.0399 109.985 47.2724L108.003 59.4325C107.085 59.9078 106.178 60.3975 105.272 60.8967L89.3836 71.5377C88.5858 72.1754 87.7951 72.8275 87.0141 73.4867L74.997 70.6539C73.7765 70.3696 72.4962 70.7327 71.6124 71.6165C70.7238 72.5026 70.3632 73.7805 70.6498 75.001L73.4803 87.0202C72.8234 87.7989 72.1737 88.5871 71.536 89.3849L60.8948 105.278C60.3979 106.179 59.9059 107.086 59.4306 108.008L47.2726 109.986C46.0377 110.187 44.9963 111.013 44.5162 112.169C44.0384 113.328 44.1937 114.649 44.9222 115.664L52.1143 125.653C51.8014 126.639 51.498 127.63 51.2114 128.629L47.5043 147.379C47.392 148.394 47.2917 149.416 47.2057 150.436L36.7102 156.933C35.6473 157.59 35 158.751 35 160.005C35 161.259 35.6473 162.42 36.7102 163.074L47.2057 169.571C47.2917 170.593 47.392 171.613 47.5043 172.628L51.2114 191.378C51.498 192.377 51.8014 193.368 52.1143 194.355L44.9222 204.346C44.1913 205.363 44.0361 206.684 44.5162 207.838C44.9963 208.996 46.0401 209.823 47.275 210.021L59.4306 211.999C59.9059 212.921 60.3932 213.828 60.8948 214.734L71.5312 230.62C72.1737 231.422 72.821 232.208 73.4803 232.989L70.6498 245.011C70.3632 246.229 70.7238 247.502 71.6124 248.388C72.4938 249.279 73.7765 249.635 74.997 249.348L87.0141 246.518C87.7951 247.182 88.5858 247.827 89.3836 248.462L105.272 259.106C106.175 259.607 107.083 260.095 108.003 260.57L109.985 272.723C110.186 273.96 111.012 275.006 112.168 275.482C113.322 275.962 114.648 275.806 115.663 275.078L125.652 267.881C126.638 268.194 127.63 268.5 128.628 268.787L147.379 272.489C148.394 272.606 149.416 272.704 150.438 272.795L156.935 283.29C157.59 284.348 158.753 285 160.005 285C161.256 285 162.42 284.35 163.077 283.29L169.573 272.795C170.596 272.704 171.616 272.606 172.631 272.489L191.379 268.787C192.377 268.5 193.369 268.194 194.355 267.881L204.347 275.078C205.362 275.806 206.685 275.962 207.839 275.482C208.995 275.006 209.821 273.958 210.022 272.723L212.005 260.57C212.922 260.095 213.829 259.6 214.735 259.106L230.624 248.462C231.421 247.825 232.212 247.182 232.991 246.518L245.008 249.348C246.228 249.635 247.509 249.279 248.39 248.388C249.279 247.502 249.639 246.229 249.353 245.011L246.522 232.989C247.181 232.208 247.831 231.422 248.466 230.62L259.108 214.734C259.607 213.828 260.096 212.921 260.569 211.999L272.727 210.021C273.965 209.823 275.006 208.996 275.484 207.838C275.962 206.684 275.811 205.363 275.078 204.346L267.886 194.355C268.196 193.368 268.5 192.377 268.789 191.378L272.496 172.628C272.606 171.613 272.706 170.591 272.794 169.571L283.29 163.074C284.353 162.42 285 161.256 285 160.005C285 158.753 284.355 157.59 283.292 156.933ZM201.442 225.086C202.226 221.422 205.823 219.095 209.48 219.879L225.185 223.254C228.235 220.151 231.068 216.831 233.65 213.322C233.175 213.408 232.723 213.456 232.3 213.456H195.079C188.986 213.456 183.267 204.857 181.863 200.553C180.454 196.714 178.392 184.726 177.453 181.041C174.456 169.057 165.081 168.441 162.924 168.441H139.296V185.19H161.142C161.987 185.19 162.551 185.343 162.551 186.112V212.534C162.551 213.303 161.987 213.456 161.142 213.456H86.4456C88.8819 216.754 91.5333 219.879 94.3829 222.812L109.734 219.516C113.389 218.73 116.986 221.061 117.77 224.72L121.493 242.109C133.198 247.55 146.244 250.593 160 250.593C173.448 250.593 186.217 247.693 197.716 242.474L201.442 225.086ZM85.1151 142.272L69.1235 149.378C68.7795 152.6 68.6004 155.88 68.6004 159.197C68.6004 167.889 69.8162 176.299 72.083 184.268H98.2166V125.882H85.2632L88.5571 133.329C90.0739 136.752 88.5308 140.755 85.1151 142.272ZM139.3 126.498V143.705H167.899C173.99 143.705 181.397 141.556 181.397 135.56C181.397 128.34 171.74 126.498 170.147 126.498H139.3ZM251.151 165.983C251.318 163.74 251.402 161.481 251.402 159.197C251.402 156.133 251.249 153.109 250.958 150.116L234.099 142.628C230.686 141.111 229.143 137.108 230.655 133.685L239.411 113.908C226.334 91.0187 203.642 74.3346 176.84 69.345L164.049 81.5791C161.345 84.1659 157.064 84.0656 154.48 81.3594L143.048 69.3665C122.888 73.1499 105.065 83.5473 91.9131 98.2249H188.897C191.334 98.2249 200.365 99.3022 208.522 104.679C214.336 108.522 222.865 116.359 222.865 128.801C222.865 140.323 213.304 148.931 204.115 154.767C211.52 160.607 216.208 163.986 219.022 179.813C219.674 182.732 224.963 185.266 229.733 184.729C234.742 184.167 240.457 181.963 240.457 171.826V167.519C240.457 166.6 240.835 165.983 241.774 165.983H251.151Z" fill="black"/>
<path d="M159.999 56.4287C102.893 56.4287 56.4286 102.893 56.4286 160.001C56.4286 217.114 102.893 263.576 159.999 263.576C217.108 263.576 263.571 217.114 263.571 160.001C263.571 102.893 217.108 56.4287 159.999 56.4287Z" fill="white"/>
<path d="M156.212 161.863C155.281 163.88 154.254 166.145 153.191 168.557C149.433 177.072 145.27 187.434 143.75 194.072C143.204 196.437 142.865 199.367 142.872 202.615C142.872 203.9 142.941 205.251 143.05 206.626C148.364 208.579 154.103 209.653 160.096 209.663C165.552 209.653 170.794 208.751 175.7 207.12C174.547 206.066 173.447 204.942 172.445 203.675C165.794 195.194 162.083 182.764 156.212 161.863" fill="#933C48"/>
<path d="M131.655 119.725C118.952 128.677 110.64 143.442 110.609 160.176C110.64 176.659 118.702 191.233 131.086 200.223C134.123 187.57 141.737 175.985 153.155 152.762C152.477 150.9 151.705 148.861 150.84 146.719C147.677 138.784 143.111 129.57 139.037 125.397C136.96 123.217 134.44 121.333 131.655 119.725" fill="#933C48"/>
<path d="M203.204 216.938C196.65 216.116 191.241 215.125 186.509 213.456C178.55 217.408 169.587 219.64 160.096 219.64C127.258 219.64 100.637 193.024 100.633 160.176C100.633 142.352 108.485 126.375 120.907 115.478C117.585 114.675 114.12 114.207 110.581 114.213C93.1341 114.378 74.717 124.033 67.0495 150.11C66.3326 153.906 66.5033 156.776 66.5033 160.177C66.5033 211.87 108.41 253.777 160.099 253.777C191.754 253.777 219.719 238.048 236.653 213.992C227.494 216.274 218.685 217.366 211.142 217.389C208.315 217.389 205.661 217.238 203.204 216.938" fill="#622831"/>
<path d="M185.616 198.801C186.194 199.088 187.504 199.556 189.327 200.073C201.591 191.069 209.561 176.567 209.593 160.176H209.588C209.542 132.85 187.429 110.74 160.096 110.686C154.664 110.696 149.445 111.593 144.558 113.212C154.607 124.666 159.439 141.035 164.114 158.941C164.116 158.949 164.12 158.956 164.122 158.962C164.131 158.977 165.617 163.934 168.169 170.512C170.703 177.081 174.314 185.212 178.251 191.139C180.836 195.11 183.68 197.964 185.616 198.801" fill="#BA5B6A"/>
<path d="M160.099 66.5762C128.749 66.5762 101.018 82.0091 84.032 105.673C92.872 100.137 101.898 98.1396 109.775 98.2108C120.655 98.2423 129.209 101.616 133.313 103.923C134.304 104.495 135.245 105.11 136.166 105.742C143.489 102.516 151.581 100.713 160.096 100.713C192.939 100.717 219.563 127.333 219.568 160.176H219.563C219.563 176.734 212.791 191.706 201.873 202.487C204.553 202.787 207.411 202.974 210.329 202.96C220.695 202.964 231.9 200.677 240.299 193.612C245.777 188.998 250.365 182.243 252.91 172.114C253.408 168.202 253.694 164.225 253.694 160.177C253.694 108.487 211.791 66.5762 160.099 66.5762" fill="#880015"/>
<path d="M371.6 218.2C356.2 218.2 344.6 213.9 336.8 205.3C329.1 196.7 325.25 183.9 325.25 166.9C325.25 149.9 329.1 137.1 336.8 128.5C344.6 119.9 356.2 115.6 371.6 115.6C376.9 115.6 382.1 116.25 387.2 117.55C392.3 118.85 397.25 120.65 402.05 122.95V133.3C397.45 130.8 392.7 128.95 387.8 127.75C382.9 126.45 377.9 125.8 372.8 125.8C364.4 125.8 357.5 127.25 352.1 130.15C346.8 133.05 342.85 137.55 340.25 143.65C337.75 149.65 336.5 157.4 336.5 166.9C336.5 176.4 337.75 184.2 340.25 190.3C342.85 196.3 346.8 200.75 352.1 203.65C357.5 206.55 364.4 208 372.8 208C377.9 208 382.9 207.4 387.8 206.2C392.7 205 397.45 203.15 402.05 200.65V211C398.85 212.5 395.55 213.8 392.15 214.9C388.85 216 385.45 216.8 381.95 217.3C378.55 217.9 375.1 218.2 371.6 218.2ZM433.111 217H422.311V113.65H433.111V217ZM487.924 219.25C476.224 219.25 467.524 215.8 461.824 208.9C456.224 201.9 453.424 192.2 453.424 179.8C453.424 166.8 456.374 157.05 462.274 150.55C468.274 144.05 476.724 140.8 487.624 140.8C495.724 140.8 502.324 142.45 507.424 145.75C512.524 148.95 516.274 153.5 518.674 159.4C521.074 165.2 522.274 172 522.274 179.8C522.274 192.1 519.274 201.75 513.274 208.75C507.374 215.75 498.924 219.25 487.924 219.25ZM487.774 209.35C493.874 209.35 498.624 208.05 502.024 205.45C505.424 202.75 507.824 199.2 509.224 194.8C510.724 190.3 511.474 185.3 511.474 179.8C511.474 173.9 510.724 168.8 509.224 164.5C507.724 160.1 505.224 156.7 501.724 154.3C498.324 151.9 493.674 150.7 487.774 150.7C481.774 150.7 477.074 152 473.674 154.6C470.274 157.2 467.824 160.7 466.324 165.1C464.924 169.4 464.224 174.3 464.224 179.8C464.224 188.6 465.974 195.75 469.474 201.25C472.974 206.65 479.074 209.35 487.774 209.35ZM532.074 245.95V235.9C536.474 235.8 539.724 235.15 541.824 233.95C544.024 232.85 545.474 231.15 546.174 228.85C546.974 226.65 547.374 223.95 547.374 220.75V142.15H558.174V221.35C558.174 226.85 557.224 231.4 555.324 235C553.424 238.7 550.524 241.45 546.624 243.25C542.824 245.05 537.974 245.95 532.074 245.95ZM546.774 128.8V116.95H558.774V128.8H546.774ZM614.061 219.25C607.461 219.25 601.811 218.1 597.111 215.8C592.411 213.5 588.811 210.15 586.311 205.75C583.911 201.35 582.711 195.95 582.711 189.55V142.15H593.511V187.15C593.511 194.75 595.161 200.35 598.461 203.95C601.861 207.45 607.061 209.2 614.061 209.2C621.061 209.2 626.211 207.45 629.511 203.95C632.911 200.35 634.611 194.75 634.611 187.15V142.15H645.411V189.55C645.411 199.05 642.661 206.4 637.161 211.6C631.761 216.7 624.061 219.25 614.061 219.25ZM669.43 217V148.15C670.63 147.65 672.93 146.8 676.33 145.6C679.83 144.4 683.98 143.3 688.78 142.3C693.68 141.3 698.73 140.8 703.93 140.8C704.73 140.8 705.53 140.9 706.33 141.1C707.13 141.3 707.93 141.5 708.73 141.7V151.3C706.13 151 703.58 150.85 701.08 150.85C698.68 150.85 696.33 151 694.03 151.3C691.73 151.5 689.43 151.8 687.13 152.2C684.83 152.6 682.53 153 680.23 153.4V217H669.43ZM751.599 219.25C744.499 219.25 738.349 217.8 733.149 214.9C727.949 211.9 723.949 207.45 721.149 201.55C718.349 195.65 716.949 188.3 716.949 179.5C716.949 166.6 719.849 156.95 725.649 150.55C731.549 144.05 739.599 140.8 749.799 140.8C757.799 140.8 764.199 142.6 768.999 146.2C773.899 149.8 777.399 154.65 779.499 160.75C781.599 166.85 782.599 173.75 782.499 181.45H722.349L723.099 171.55H775.449L771.249 173.05C770.949 165.55 769.049 159.95 765.549 156.25C762.149 152.55 756.899 150.7 749.799 150.7C744.899 150.7 740.799 151.6 737.499 153.4C734.299 155.2 731.899 158.35 730.299 162.85C728.699 167.25 727.899 173.45 727.899 181.45C727.899 190.55 729.999 197.5 734.199 202.3C738.499 207 744.499 209.35 752.199 209.35C755.899 209.35 759.299 209.1 762.399 208.6C765.499 208 768.349 207.2 770.949 206.2C773.549 205.2 775.849 204.1 777.849 202.9V214C774.249 215.7 770.249 217 765.849 217.9C761.549 218.8 756.799 219.25 751.599 219.25ZM803.48 217V116.95H844.58C854.38 116.95 861.73 119.4 866.63 124.3C871.63 129.2 874.13 136.45 874.13 146.05C874.13 151.85 872.93 157 870.53 161.5C868.13 166 864.78 169.55 860.48 172.15C856.18 174.75 851.13 176.05 845.33 176.05L849.83 173.05L878.63 217H865.88L836.18 171.1L841.58 176.65H814.28V217H803.48ZM814.28 166.45H839.63C847.93 166.45 853.93 164.8 857.63 161.5C861.43 158.1 863.33 153.2 863.33 146.8C863.33 140.8 861.93 136.05 859.13 132.55C856.33 128.95 851.08 127.15 843.38 127.15H814.28V166.45ZM926.459 218.5C921.459 218.5 917.209 218.15 913.709 217.45C910.209 216.75 907.059 215.75 904.259 214.45C901.459 213.15 898.409 211.65 895.109 209.95V198.25C898.309 200.95 902.609 203.35 908.009 205.45C913.409 207.55 919.709 208.6 926.909 208.6C934.509 208.6 940.009 207 943.409 203.8C946.909 200.5 948.659 196.35 948.659 191.35C948.659 187.15 947.509 183.8 945.209 181.3C942.909 178.7 939.959 176.6 936.359 175C932.759 173.3 928.959 171.7 924.959 170.2C921.559 169 918.159 167.75 914.759 166.45C911.459 165.05 908.459 163.35 905.759 161.35C903.059 159.25 900.909 156.6 899.309 153.4C897.709 150.1 896.909 146 896.909 141.1C896.909 138.4 897.409 135.55 898.409 132.55C899.509 129.55 901.209 126.75 903.509 124.15C905.909 121.55 909.059 119.45 912.959 117.85C916.959 116.25 921.809 115.45 927.509 115.45C931.409 115.45 934.709 115.75 937.409 116.35C940.209 116.85 942.859 117.65 945.359 118.75C947.859 119.75 950.659 121 953.759 122.5V133.6C951.159 132.1 948.659 130.75 946.259 129.55C943.959 128.25 941.359 127.25 938.459 126.55C935.659 125.75 932.209 125.35 928.109 125.35C923.209 125.35 919.259 126.05 916.259 127.45C913.359 128.85 911.209 130.7 909.809 133C908.509 135.3 907.859 137.75 907.859 140.35C907.859 144.45 908.759 147.7 910.559 150.1C912.459 152.5 915.059 154.5 918.359 156.1C921.759 157.6 925.659 159.1 930.059 160.6C933.559 161.8 937.059 163.15 940.559 164.65C944.059 166.05 947.209 167.85 950.009 170.05C952.909 172.15 955.209 174.85 956.909 178.15C958.709 181.35 959.609 185.35 959.609 190.15C959.609 194.65 958.609 199.1 956.609 203.5C954.609 207.8 951.209 211.4 946.409 214.3C941.609 217.1 934.959 218.5 926.459 218.5Z" fill="black"/>
<path d="M1658.34 691.611C1646.63 689.104 1635.12 696.549 1632.61 708.274L1620.69 763.918C1583.9 780.618 1543.03 789.897 1500 789.897C1455.98 789.897 1414.23 780.16 1376.78 762.748L1364.86 707.105C1362.36 695.395 1350.84 687.935 1339.15 690.45L1290.03 700.997C1280.91 691.611 1272.42 681.614 1264.63 671.058H1503.65C1506.36 671.058 1508.16 670.569 1508.16 668.108V583.557C1508.16 581.096 1506.36 580.607 1503.65 580.607H1433.75V527.012H1509.36C1516.26 527.012 1546.26 528.984 1555.85 567.33C1558.86 579.124 1565.45 617.486 1569.96 629.769C1574.46 643.542 1592.75 671.058 1612.25 671.058H1731.36C1732.71 671.058 1734.16 670.906 1735.68 670.63C1727.42 681.858 1718.35 692.483 1708.59 702.412L1658.34 691.611ZM1209.2 466.01L1260.37 443.271C1271.3 438.417 1276.24 425.607 1271.38 414.654L1260.84 390.822H1302.29V577.657H1218.67C1211.41 552.158 1207.52 525.246 1207.52 497.432C1207.52 486.815 1208.09 476.321 1209.2 466.01ZM1433.76 447.865V392.794H1532.47C1537.57 392.794 1568.47 398.687 1568.47 421.793C1568.47 440.978 1544.77 447.857 1525.28 447.857H1433.76V447.865ZM1792.49 497.432C1792.49 504.739 1792.22 511.969 1791.68 519.147H1761.68C1758.67 519.147 1757.46 521.119 1757.46 524.061V537.842C1757.46 570.281 1739.17 577.336 1723.14 579.132C1707.88 580.851 1690.96 572.742 1688.87 563.402C1679.87 512.757 1664.86 501.941 1641.17 483.253C1670.57 464.581 1701.17 437.034 1701.17 400.162C1701.17 360.348 1673.87 335.27 1655.27 322.972C1629.17 305.767 1600.27 302.32 1592.47 302.32H1282.12C1324.21 255.351 1381.24 222.08 1445.75 209.973L1482.34 248.35C1490.61 257.01 1504.3 257.331 1512.96 249.053L1553.89 209.904C1639.65 225.871 1712.27 279.26 1754.12 352.506L1726.09 415.793C1721.26 426.746 1726.19 439.556 1737.12 444.41L1791.06 468.372C1792 477.949 1792.49 487.625 1792.49 497.432Z" fill="black"/>
<path fill-rule="evenodd" clip-rule="evenodd" d="M1894.53 490.186L1860.95 469.396C1860.67 466.125 1860.35 462.861 1859.99 459.612L1848.13 399.612C1847.21 396.417 1846.24 393.245 1845.24 390.088L1868.26 358.124C1870.6 354.876 1871.08 350.649 1869.56 346.942C1868.03 343.25 1864.69 340.605 1860.74 339.956L1821.83 333.627C1820.32 330.677 1818.74 327.772 1817.15 324.891L1783.1 274.032C1781.06 271.479 1778.98 268.949 1776.86 266.465L1785.94 228.003C1786.85 224.098 1785.7 220.008 1782.86 217.173C1780.04 214.345 1775.94 213.175 1772.03 214.092L1733.58 223.157C1731.09 221.048 1728.56 218.961 1726 216.921L1675.16 182.869C1672.26 181.279 1669.36 179.705 1666.42 178.184L1660.08 139.272C1659.44 135.328 1656.79 131.98 1653.09 130.451C1649.4 128.915 1645.17 129.412 1641.92 131.751L1609.93 154.765C1606.78 153.763 1603.62 152.8 1600.42 151.883L1540.43 140.021C1537.18 139.661 1533.91 139.333 1530.64 139.065L1509.85 105.473C1507.75 102.071 1504.03 100 1500.02 100C1496.02 100 1492.3 102.071 1490.2 105.473L1469.41 139.065C1466.14 139.333 1462.87 139.661 1459.62 140.021L1399.62 151.883C1396.42 152.8 1393.26 153.771 1390.1 154.765L1358.12 131.751C1354.87 129.404 1350.64 128.907 1346.94 130.451C1343.25 131.98 1340.59 135.328 1339.95 139.272L1333.61 178.184C1330.67 179.705 1327.77 181.272 1324.87 182.869L1274.03 216.921C1271.47 218.961 1268.94 221.048 1266.45 223.157L1227.99 214.092C1224.08 213.183 1219.99 214.345 1217.16 217.173C1214.32 220.008 1213.16 224.098 1214.08 228.003L1223.14 266.465C1221.03 268.956 1218.96 271.479 1216.92 274.032L1182.86 324.891C1181.27 327.772 1179.7 330.677 1178.18 333.627L1139.27 339.956C1135.32 340.598 1131.99 343.242 1130.45 346.942C1128.92 350.649 1129.42 354.876 1131.75 358.124L1154.77 390.088C1153.76 393.245 1152.79 396.417 1151.88 399.612L1140.01 459.612C1139.65 462.861 1139.33 466.132 1139.06 469.396L1105.47 490.186C1102.07 492.288 1100 496.003 1100 500.015C1100 504.028 1102.07 507.743 1105.47 509.837L1139.06 530.627C1139.33 533.898 1139.65 537.162 1140.01 540.41L1151.88 600.411C1152.79 603.606 1153.76 606.778 1154.77 609.934L1131.75 641.907C1129.41 645.163 1128.92 649.39 1130.45 653.081C1131.99 656.788 1135.33 659.433 1139.28 660.067L1178.18 666.396C1179.7 669.346 1181.26 672.251 1182.86 675.148L1216.9 725.984C1218.96 728.552 1221.03 731.066 1223.14 733.566L1214.08 772.035C1213.16 775.933 1214.32 780.007 1217.16 782.843C1219.98 785.694 1224.08 786.832 1227.99 785.915L1266.45 776.858C1268.94 778.983 1271.47 781.046 1274.03 783.08L1324.87 817.138C1327.76 818.743 1330.67 820.303 1333.61 821.824L1339.95 860.713C1340.59 864.672 1343.24 868.02 1346.94 869.541C1350.63 871.078 1354.87 870.581 1358.12 868.25L1390.09 845.22C1393.24 846.221 1396.42 847.2 1399.61 848.117L1459.61 859.964C1462.86 860.339 1466.13 860.652 1469.4 860.942L1490.19 894.527C1492.29 897.913 1496.01 900 1500.02 900C1504.02 900 1507.74 897.921 1509.84 894.527L1530.64 860.942C1533.91 860.652 1537.17 860.339 1540.42 859.964L1600.41 848.117C1603.61 847.2 1606.78 846.221 1609.94 845.22L1641.91 868.25C1645.16 870.581 1649.39 871.078 1653.08 869.541C1656.78 868.02 1659.43 864.665 1660.07 860.713L1666.41 821.824C1669.35 820.303 1672.25 818.721 1675.15 817.138L1726 783.08C1728.55 781.039 1731.08 778.983 1733.57 776.858L1772.02 785.915C1775.93 786.832 1780.03 785.694 1782.85 782.843C1785.69 780.007 1786.85 775.933 1785.93 772.035L1776.87 733.566C1778.98 731.066 1781.06 728.552 1783.09 725.984L1817.14 675.148C1818.74 672.251 1820.31 669.346 1821.82 666.396L1860.73 660.067C1864.69 659.433 1868.02 656.788 1869.55 653.081C1871.08 649.39 1870.6 645.163 1868.25 641.907L1845.23 609.934C1846.23 606.778 1847.2 603.606 1848.12 600.411L1859.99 540.41C1860.34 537.162 1860.66 533.891 1860.94 530.627L1894.53 509.837C1897.93 507.743 1900 504.02 1900 500.015C1900 496.01 1897.94 492.288 1894.53 490.186ZM1632.61 708.274C1635.12 696.549 1646.63 689.104 1658.34 691.611L1708.59 702.412C1718.35 692.483 1727.42 681.858 1735.68 670.63C1734.16 670.906 1732.71 671.058 1731.36 671.058H1612.25C1592.75 671.058 1574.46 643.542 1569.96 629.769C1565.45 617.486 1558.86 579.124 1555.85 567.33C1546.26 528.984 1516.26 527.012 1509.36 527.012H1433.75V580.607H1503.65C1506.36 580.607 1508.16 581.096 1508.16 583.557V668.108C1508.16 670.569 1506.36 671.058 1503.65 671.058H1264.63C1272.42 681.614 1280.91 691.611 1290.03 700.997L1339.15 690.45C1350.84 687.935 1362.36 695.395 1364.86 707.105L1376.78 762.748C1414.23 780.16 1455.98 789.897 1500 789.897C1543.03 789.897 1583.9 780.618 1620.69 763.918L1632.61 708.274ZM1260.37 443.271L1209.2 466.01C1208.09 476.321 1207.52 486.815 1207.52 497.432C1207.52 525.246 1211.41 552.158 1218.67 577.657H1302.29V390.822H1260.84L1271.38 414.654C1276.24 425.607 1271.3 438.417 1260.37 443.271ZM1433.76 392.794V447.857H1525.28C1544.77 447.857 1568.47 440.978 1568.47 421.793C1568.47 398.687 1537.57 392.794 1532.47 392.794H1433.76ZM1791.68 519.147C1792.22 511.969 1792.49 504.739 1792.49 497.432C1792.49 487.625 1792 477.949 1791.06 468.372L1737.12 444.41C1726.19 439.556 1721.26 426.746 1726.09 415.793L1754.12 352.506C1712.27 279.26 1639.65 225.871 1553.89 209.904L1512.96 249.053C1504.3 257.331 1490.61 257.01 1482.34 248.35L1445.75 209.973C1381.24 222.08 1324.21 255.351 1282.12 302.32H1592.47C1600.27 302.32 1629.17 305.767 1655.27 322.972C1673.87 335.27 1701.17 360.348 1701.17 400.162C1701.17 437.034 1670.57 464.581 1641.17 483.253C1664.86 501.941 1679.87 512.757 1688.87 563.402C1690.96 572.742 1707.88 580.851 1723.14 579.132C1739.17 577.336 1757.46 570.281 1757.46 537.842V524.061C1757.46 521.119 1758.67 519.147 1761.68 519.147H1791.68Z" fill="black"/>
<path d="M1500 168.571C1317.26 168.571 1168.57 317.256 1168.57 500.002C1168.57 682.765 1317.26 831.441 1500 831.441C1682.74 831.441 1831.43 682.765 1831.43 500.002C1831.43 317.256 1682.74 168.571 1500 168.571Z" fill="white"/>
<path d="M1487.88 505.963C1484.9 512.416 1481.61 519.666 1478.21 527.382C1466.18 554.632 1452.86 587.79 1448 609.032C1446.25 616.598 1445.17 625.974 1445.19 636.37C1445.19 640.482 1445.41 644.803 1445.76 649.205C1462.76 655.453 1481.13 658.889 1500.31 658.923C1517.77 658.889 1534.54 656.005 1550.24 650.785C1546.55 647.411 1543.03 643.814 1539.82 639.762C1518.54 612.621 1506.66 572.845 1487.88 505.963" fill="#933C48"/>
<path d="M1409.3 371.118C1368.65 399.766 1342.05 447.015 1341.95 500.562C1342.05 553.308 1367.85 599.946 1407.47 628.713C1417.19 588.225 1441.56 551.151 1478.1 476.839C1475.93 470.878 1473.45 464.353 1470.69 457.499C1460.57 432.109 1445.96 402.622 1432.92 389.269C1426.27 382.294 1418.21 376.266 1409.3 371.118" fill="#933C48"/>
<path d="M1638.25 682.2C1617.28 679.572 1599.97 676.4 1584.83 671.058C1559.36 683.705 1530.68 690.848 1500.31 690.848C1395.22 690.848 1310.04 605.676 1310.03 500.562C1310.03 443.528 1335.15 392.4 1374.9 357.53C1364.27 354.961 1353.18 353.462 1341.86 353.483C1286.03 354.008 1227.09 384.906 1202.56 468.351C1200.26 480.497 1200.81 489.682 1200.81 500.567C1200.81 665.983 1334.91 800.085 1500.32 800.085C1601.61 800.085 1691.1 749.752 1745.29 672.773C1715.98 680.077 1687.79 683.57 1663.66 683.645C1654.61 683.645 1646.12 683.161 1638.25 682.2" fill="#622831"/>
<path d="M1581.97 624.164C1583.82 625.081 1588.01 626.577 1593.85 628.232C1633.09 599.421 1658.6 553.013 1658.7 500.562H1658.68C1658.53 413.119 1587.77 342.367 1500.31 342.193C1482.92 342.227 1466.22 345.096 1450.59 350.277C1482.74 386.931 1498.21 439.312 1513.16 496.611C1513.17 496.636 1513.18 496.657 1513.19 496.678C1513.22 496.724 1517.97 512.589 1526.14 533.637C1534.25 554.657 1545.8 580.679 1558.4 599.643C1566.68 612.352 1575.78 621.484 1581.97 624.164" fill="#BA5B6A"/>
<path d="M1500.32 201.043C1400 201.043 1311.26 250.429 1256.9 326.153C1285.19 308.437 1314.07 302.046 1339.28 302.274C1374.1 302.375 1401.47 313.17 1414.6 320.555C1417.77 322.383 1420.78 324.35 1423.73 326.373C1447.17 316.052 1473.06 310.28 1500.31 310.28C1605.4 310.293 1690.6 395.465 1690.62 500.562H1690.6C1690.6 553.549 1668.93 601.458 1633.99 635.958C1642.57 636.919 1651.71 637.517 1661.05 637.47C1694.22 637.486 1730.08 630.166 1756.96 607.559C1774.49 592.795 1789.17 571.177 1797.31 538.764C1798.9 526.245 1799.82 513.518 1799.82 500.567C1799.82 335.158 1665.73 201.043 1500.32 201.043" fill="#880015"/>
<defs>
<clipPath id="clip0">
<rect width="1000" height="1000" fill="white" transform="translate(0 320)"/>
</clipPath>
</defs>
</svg>
